<?xml version="1.0" encoding="utf-8"?>
<!-- Generator: Adobe Illustrator 19.1.0, SVG Export Plug-In . SVG Version: 6.00 Build 0)  -->
<svg version="1.1" id="Layer_1" xmlns="http://www.w3.org/2000/svg" xmlns:xlink="http://www.w3.org/1999/xlink" x="0px" y="0px"
	 viewBox="0 0 32 32" style="enable-background:new 0 0 32 32;" xml:space="preserve">
<style type="text/css">
	.st0{fill:#424A4E;}
</style>
<path class="st0" d="M13.8,19.9c-0.4,0-0.8-0.2-1.1-0.5c-3-3-3-7.8,0-10.8l6-6C20,1.2,22,0.4,24,0.4s4,0.8,5.4,2.2c3,3,3,7.8,0,10.8
	l-2.7,2.7c-0.6,0.6-1.7,0.6-2.3,0s-0.6-1.7,0-2.3l2.7-2.7c1.7-1.7,1.7-4.5,0-6.2c-0.8-0.8-1.9-1.3-3.1-1.3s-2.3,0.5-3.1,1.3l-6,6
	c-1.7,1.7-1.7,4.5,0,6.2c0.6,0.6,0.6,1.7,0,2.3C14.6,19.7,14.2,19.9,13.8,19.9z"/>
<path class="st0" d="M8,31.6c-2,0-4-0.8-5.4-2.2c-3-3-3-7.8,0-10.8l2.7-2.7c0.6-0.6,1.7-0.6,2.3,0s0.6,1.7,0,2.3l-2.7,2.7
	c-1.7,1.7-1.7,4.5,0,6.2c0.8,0.8,1.9,1.3,3.1,1.3s2.3-0.5,3.1-1.3l6-6c1.7-1.7,1.7-4.5,0-6.2c-0.6-0.6-0.6-1.7,0-2.3s1.7-0.6,2.3,0
	c3,3,3,7.8,0,10.8l-6,6C12,30.8,10,31.6,8,31.6z"/>
</svg>
