<svg id="ab33c339-a290-46df-b273-a8a31c058d9b" data-name="Layer 1" xmlns="http://www.w3.org/2000/svg" width="1104" height="560.27146" viewBox="0 0 1104 560.27146"><title>zoom_in</title><rect width="1104" height="560" fill="#00b0ff"/><rect x="1021.14746" y="484.74411" width="2" height="74.41113" fill="#3f3d56"/><circle cx="1022.14769" cy="484.74374" r="10.52282" fill="#3f3d56"/><path d="M1070.14769,700.46928s-1.50326-32.33193-32.32009-28.57378" transform="translate(-48 -169.86427)" fill="#3f3d56"/><path d="M107.40863,693.73447c6.07317,22.45005,26.87512,36.35394,26.87512,36.35394s10.95541-22.49485,4.88225-44.94491-26.87512-36.35394-26.87512-36.35394S101.33547,671.28441,107.40863,693.73447Z" transform="translate(-48 -169.86427)" fill="#fff"/><path d="M116.33272,688.90971c16.66484,16.22255,18.70033,41.1604,18.70033,41.1604s-24.98356-1.36412-41.64841-17.58667S74.68431,671.323,74.68431,671.323,99.66787,672.68715,116.33272,688.90971Z" transform="translate(-48 -169.86427)" fill="#3f3d56"/><polygon points="442.23 0 0 303.64 0 234.46 341.53 0 442.23 0" opacity="0.1"/><polygon points="274.97 0 0 188.77 0 119.63 174.26 0 274.97 0" opacity="0.1"/><polygon points="93.46 0 0 64.16 0 0 93.46 0" opacity="0.1"/><ellipse cx="552" cy="401.63676" rx="159" ry="24" opacity="0.1"/><ellipse cx="552" cy="381.63676" rx="159" ry="24" opacity="0.1"/><ellipse cx="552" cy="361.63676" rx="159" ry="24" opacity="0.1"/><ellipse cx="552" cy="341.63676" rx="159" ry="24" opacity="0.1"/><ellipse cx="552" cy="321.63676" rx="159" ry="24" opacity="0.1"/><ellipse cx="552" cy="301.63676" rx="159" ry="24" opacity="0.1"/><path d="M655.694,398.04177c-12.67662,46.86038-56.09688,75.88219-56.09688,75.88219s-22.86741-46.95387-10.1908-93.81425,56.09688-75.88219,56.09688-75.88219S668.37058,351.18139,655.694,398.04177Z" transform="translate(-48 -169.86427)" fill="#fff"/><path d="M540.37214,398.04177C553.04875,444.90215,596.469,473.924,596.469,473.924s22.86741-46.95387,10.1908-93.81425-56.09688-75.88219-56.09688-75.88219S527.69553,351.18139,540.37214,398.04177Z" transform="translate(-48 -169.86427)" fill="#fff"/><path d="M558.99953,387.971c34.78481,33.86161,39.03352,85.91479,39.03352,85.91479s-52.14861-2.84734-86.93342-36.709S472.06611,351.262,472.06611,351.262,524.21472,354.10936,558.99953,387.971Z" transform="translate(-48 -169.86427)" fill="#3f3d56"/><path d="M637.06658,387.971c-34.78481,33.86161-39.03353,85.91479-39.03353,85.91479s52.14861-2.84734,86.93343-36.709S724,351.262,724,351.262,671.85139,354.10936,637.06658,387.971Z" transform="translate(-48 -169.86427)" fill="#3f3d56"/><rect x="256.17236" y="440.31101" width="561.82764" height="2" fill="#3f3d56"/><path d="M688.17236,730.13573a12,12,0,1,1,12-12A12.01375,12.01375,0,0,1,688.17236,730.13573Zm0-22a10,10,0,1,0,10,10A10.01114,10.01114,0,0,0,688.17236,708.13573Z" transform="translate(-48 -169.86427)" fill="#f0f0f0"/><path d="M311,487.42559H291.25885V467.68444H311ZM292.7774,485.907h16.704V469.203h-16.704Z" transform="translate(-48 -169.86427)" fill="#3f3d56"/><path d="M840.64387,625.50567l-13.4651-14.43621L841.615,597.60437l13.46509,14.43621ZM829.325,611.14416l11.39354,12.21526,12.21525-11.39354-11.39354-12.21526Z" transform="translate(-48 -169.86427)" fill="#f0f0f0"/><path d="M1152,283.86427v286a143,143,0,1,1,0-286Z" transform="translate(-48 -169.86427)" opacity="0.1"/><circle cx="972" cy="152" r="110" opacity="0.1"/><circle cx="875" cy="88" r="56" opacity="0.1"/><path d="M923.3101,286.93662a29.116,29.116,0,1,1,29.116-29.116A29.14864,29.14864,0,0,1,923.3101,286.93662Z" transform="translate(-48 -169.86427)" fill="#3f3d56"/><circle cx="550.3101" cy="116.95636" r="10.07861" fill="#f0f0f0"/><path d="M598.3101,315.93662a29.116,29.116,0,1,1,29.116-29.116A29.14864,29.14864,0,0,1,598.3101,315.93662Zm0-55.99228a26.8763,26.8763,0,1,0,26.87629,26.87629A26.90708,26.90708,0,0,0,598.3101,259.94434Z" transform="translate(-48 -169.86427)" fill="#2f2e41"/></svg>