<svg id="ae078c60-54bd-436d-9521-059685d2198b" data-name="Layer 1" xmlns="http://www.w3.org/2000/svg" width="1030.47472" height="865.22829" viewBox="0 0 1030.47472 865.22829"><title>healthy_options</title><path d="M359.22545,543.38585c-2.77441,0-5.57715-.04394-8.32812-.12988l.0625-1.99805c3.95019.12305,7.98144.15723,11.95019.10254l.02734,2Q361.08433,543.38538,359.22545,543.38585Zm15.74512-.46386-.11719-1.9961c3.95605-.2334,7.96289-.56152,11.90918-.97461l.209,1.98829C382.995,542.35656,378.95787,542.68761,374.97057,542.922Zm-36.09571-.31153c-3.98925-.30566-8.0205-.70605-11.98242-1.19238l.24414-1.98437c3.93164.48144,7.93164.87988,11.89063,1.18261Zm60.03907-2.19922-.29981-1.97656c3.93067-.59668,7.8916-1.28906,11.76953-2.05957l.38965,1.96094C406.8651,539.11242,402.87486,539.81066,398.91393,540.41124Zm-83.93506-.73144c-3.94092-.668-7.91895-1.43555-11.82324-2.2832l.42431-1.95508c3.87451.8418,7.82178,1.60351,11.73291,2.26562Zm107.54834-3.96191-.48047-1.94141c3.8584-.9541,7.73828-2.00879,11.53223-3.13379l.56836,1.918C430.32408,533.69445,426.4149,534.757,422.52721,535.71789ZM291.451,534.5714c-3.86573-1.02832-7.75586-2.15918-11.5625-3.36328l.60254-1.90625c3.77783,1.19434,7.63818,2.31641,11.47363,3.33594Zm154.1582-5.70117-.65625-1.88867c3.74414-1.30176,7.50977-2.709,11.19434-4.1836l.74218,1.85743C453.1776,526.14074,449.38268,527.55871,445.60924,528.87023Zm-177.14551-1.56641c-3.75439-1.37988-7.53222-2.86914-11.22754-4.42578l.77637-1.84375c3.667,1.54492,7.41553,3.02246,11.1416,4.39258Zm199.47461-7.36816-.82812-1.82031c3.5957-1.63379,7.21-3.37793,10.74218-5.1836l.91016,1.78125C475.203,516.53234,471.56139,518.28917,467.93834,519.93566Zm21.39844-10.93848-.99024-1.73633c3.44825-1.96777,6.89063-4.03613,10.2295-6.14843l1.06836,1.68945C496.28014,504.93078,492.81236,507.01574,489.33678,508.99718ZM509.66,496.13976l-1.14453-1.63867c3.24707-2.26856,6.4873-4.64453,9.63086-7.06055l1.21875,1.58594C516.19811,491.46105,512.93248,493.8546,509.66,496.13976Zm-304.82568-2.81641c-3.228-2.34472-6.45264-4.80078-9.585-7.30175l1.248-1.5625c3.1084,2.48144,6.3086,4.91894,9.51172,7.24511Zm323.90283-11.8457-1.28906-1.5293c3.02636-2.55371,6.03808-5.21484,8.95312-7.91015l1.35742,1.46875C534.82213,476.22277,531.787,478.90441,528.73717,481.47765Zm-342.728-3.18555c-3.00635-2.63281-5.99316-5.37109-8.87695-8.13964l1.38476-1.44336c2.86231,2.748,5.82618,5.46582,8.80957,8.0791ZM546.41,465.131l-1.42383-1.4043c2.79-2.82714,5.54981-5.75293,8.20117-8.69531l1.48633,1.33789C552.00182,459.33507,549.22154,462.28234,546.41,465.131Zm-377.773-3.51172c-2.7583-2.90039-5.48242-5.89843-8.09668-8.91015l1.51074-1.31055c2.59424,2.98926,5.29737,5.96387,8.03516,8.8418Zm393.89307-14.37988-1.54492-1.26953c2.5205-3.06738,5.00195-6.23242,7.37793-9.40918l1.60156,1.19726C567.57115,440.9591,565.07018,444.14953,562.53014,447.23937Zm-409.6709-3.79688c-2.477-3.12988-4.916-6.36132-7.24951-9.60449l1.623-1.168c2.31592,3.21778,4.73633,6.42481,7.19483,9.53223Zm424.09961-15.49707-1.6543-1.123c2.23047-3.28418,4.415-6.66406,6.49219-10.04785l1.70508,1.04687C581.40709,421.23058,579.20592,424.63683,576.95885,427.94542ZM138.808,423.91613c-2.1792-3.34082-4.312-6.77832-6.33984-10.21973l1.72265-1.01562c2.0127,3.415,4.1294,6.82714,6.292,10.1416Zm450.76611-16.51074-1.75-.9668c1.91993-3.47461,3.78516-7.043,5.5459-10.60645l1.793.88672C593.38951,400.30871,591.50865,403.90441,589.57408,407.40539Zm10.68067-21.6211-1.832-.80273c1.59375-3.63965,3.124-7.36719,4.54882-11.07813l1.86719.7168C603.40318,378.36046,601.86022,382.11632,600.25475,385.78429ZM116.3524,381.46886c-1.5332-3.67969-3.00146-7.44433-4.36377-11.19043l1.87989-.68359c1.35156,3.71777,2.80859,7.45312,4.32959,11.10449ZM608.90318,363.253l-1.89843-.6289c1.248-3.76075,2.42578-7.6045,3.5-11.42579l1.92578.541C611.34752,355.59,610.16,359.464,608.90318,363.253Zm-500.76709-4.38281c-1.18994-3.81152-2.3081-7.70508-3.32324-11.57422l1.93457-.50781c1.00733,3.83984,2.11719,7.7041,3.29785,11.48633Zm507.28565-18.79492-1.94824-.45313c.89551-3.85449,1.71386-7.791,2.43359-11.69824l1.9668.36133C617.14928,332.22374,616.32408,336.18957,615.42174,340.07531Zm-513.394-4.49414c-.834-3.90625-1.58887-7.88575-2.24317-11.83008l1.97266-.32813c.6499,3.915,1.39892,7.86426,2.22656,11.74024Zm517.75244-19.1836-1.98242-.27148c.53808-3.917.99218-7.91113,1.35058-11.87207l1.99219.17969C620.77916,308.42589,620.32115,312.45031,619.78014,316.39757Zm-521.69385-4.5664c-.47168-3.959-.85889-7.99121-1.15137-11.98438l1.99512-.14648c.28955,3.96386.67432,7.96484,1.14258,11.89453ZM621.95494,292.422l-1.998-.08985c.17773-3.96289.26855-7.98242.26855-11.94629h2C622.22545,284.38,622.13463,288.4298,621.95494,292.422ZM96.329,287.82042c-.06836-2.45214-.103-4.9541-.10352-7.43457q0-2.30859.03955-4.60839l2,.03515q-.03955,2.28223-.03955,4.57324c.00049,2.46192.03516,4.94532.10254,7.37989Zm2.41064-23.94775-1.99609-.125c.24951-3.99609.59424-8.03223,1.02343-11.99658l1.98829.21533C99.329,255.901,98.98766,259.90636,98.73961,263.87267Zm520.19446-12.20159c-.39942-3.94287-.94885-5.8653-1.52893-9.79109l1.97851-.292c.584,3.95557,1.085,6.9751,1.48828,10.94776ZM101.31236,240.11974l-1.97656-.30566c.61279-3.95655,1.32471-7.94434,2.11621-11.854l1.96.39649C102.62682,232.23644,101.92027,236.194,101.31236,240.11974Zm514.07422-10.01562c-.76269-3.90137-1.623-7.82862-2.55859-11.67237l1.94336-.47265c.94238,3.873,1.80957,7.83056,2.57812,11.76123ZM106.04967,216.70275l-1.93994-.48633c.97119-3.87353,2.04687-7.7793,3.19726-11.60937l1.915.57519C108.08092,208.983,107.01354,212.859,106.04967,216.70275Zm503.68457-9.81348c-1.11523-3.8081-2.334-7.63867-3.62207-11.38672l1.89062-.65039c1.29883,3.77686,2.52735,7.6377,3.65137,11.47461Zm-496.79981-13.1001-1.88671-.66308c1.3291-3.78076,2.76416-7.57959,4.26513-11.291l1.85449.75C115.6776,186.26769,114.25328,190.03771,112.93443,193.78917Zm489.03321-9.49462c-1.459-3.68067-3.02149-7.37452-4.64453-10.9795l1.82422-.82129c1.63574,3.63282,3.21,7.355,4.67968,11.06348ZM121.911,171.59191l-1.81739-.835c1.67041-3.6377,3.44825-7.28565,5.28418-10.84229l1.77735.917C125.33287,164.36144,123.56871,167.98156,121.911,171.59191Zm470.26855-9.03565c-1.79-3.53076-3.68652-7.06884-5.63672-10.51464l1.74024-.98536c1.96582,3.47266,3.876,7.0376,5.67969,10.59571Zm-459.2915-12.22949-1.7334-.998c1.99512-3.46436,4.09912-6.93213,6.25391-10.30616l1.68554,1.07617C136.95592,143.44738,134.86754,146.88878,132.88805,150.32677Zm447.5415-8.53515c-2.11328-3.36426-4.32617-6.71582-6.57715-9.96192l1.64258-1.13965c2.26856,3.271,4.499,6.64795,6.62793,10.03809ZM145.76109,130.16808l-1.63476-1.15234c2.30566-3.27,4.71631-6.5293,7.1665-9.6875l1.58008,1.22558C150.44176,123.68859,148.04869,126.923,145.76109,130.16808Zm421.064-7.99219c-2.41016-3.15674-4.91992-6.29492-7.46191-9.32715l1.5332-1.28466c2.56055,3.05566,5.08984,6.21728,7.51855,9.39795ZM160.41442,111.277l-1.52247-1.29688c2.58741-3.03906,5.28418-6.064,8.01514-8.99072l1.46192,1.36426C165.659,105.25841,162.98277,108.26085,160.41442,111.277Zm391.06982-7.40821c-2.68652-2.92431-5.47363-5.82275-8.28223-8.61377l1.41016-1.41894c2.83008,2.813,5.63769,5.73291,8.34473,8.6792ZM176.7191,93.8048l-1.39843-1.42969c2.85986-2.79785,5.81933-5.564,8.79541-8.22119l1.332,1.49219C182.49449,88.28283,179.55748,91.02794,176.7191,93.8048ZM534.537,87.025c-2.94433-2.67041-5.98437-5.30419-9.03515-7.82812l1.27539-1.541c3.07324,2.543,6.13672,5.19678,9.10351,7.8877ZM194.53746,77.89318l-1.26269-1.55078c3.09326-2.519,6.29-5.00342,9.502-7.38428l1.19141,1.60645C200.78014,72.92785,197.60729,75.39318,194.53746,77.89318Zm19.18213-14.21729-1.11621-1.65918c3.31055-2.22754,6.71875-4.40869,10.13037-6.48437l1.03906,1.709C220.38756,59.30089,217.00524,61.46593,213.71959,63.67589Zm20.3877-12.40136-.96-1.75489c3.50244-1.9165,7.09375-3.77588,10.67382-5.52734l.87891,1.79687C241.14733,47.527,237.58336,49.37218,234.10729,51.27453ZM475.4774,46.64074c-3.55859-1.773-7.2041-3.48584-10.835-5.09082l.8086-1.8291c3.65918,1.61718,7.333,3.34326,10.91894,5.12988ZM255.52916,40.7965l-.79492-1.835c3.66016-1.58643,7.4043-3.10791,11.12793-4.52246l.71,1.87011C262.87682,37.71251,259.16149,39.22228,255.52916,40.7965ZM453.58092,36.962c-3.70313-1.436-7.49316-2.80616-11.26563-4.07178l.63672-1.89649c3.80078,1.27588,7.62012,2.65625,11.35157,4.104ZM277.83776,32.32531l-.623-1.90039c3.80078-1.2461,7.67871-2.41944,11.52539-3.48633l.53467,1.92676C285.45738,29.92443,281.60924,31.08849,277.83776,32.32531Zm153.06347-2.97364c-3.81445-1.0874-7.70508-2.10009-11.56347-3.00976l.459-1.94629c3.88867.9165,7.80859,1.937,11.65332,3.03223Zm-130.0415-3.41552-.44531-1.94971c3.89648-.89014,7.86572-1.70117,11.79687-2.41016l.35547,1.96778C308.6649,24.24816,304.72643,25.05285,300.85973,25.93615Zm106.7876-2.0669c-3.89454-.73095-7.86133-1.38135-11.791-1.9331l.27734-1.98047c3.96.55615,7.958,1.21142,11.88282,1.94775ZM324.37193,21.693l-.26464-1.98242c3.959-.52832,7.98535-.97266,11.96679-1.31933l.17383,1.99218C332.29674,20.72814,328.30162,21.16857,324.37193,21.693Zm59.61622-1.14746c-3.93946-.37109-7.94922-.65722-11.91895-.84912l.09766-1.998c3.999.19385,8.03906.48194,12.00879.856Zm-35.81446-.9292-.084-1.998c3.67578-.15332,7.42187-.23145,11.13574-.23243l.90527.00147-.00586,2-.89941-.00147C355.5399,19.38683,351.82115,19.46447,348.17369,19.61632Z" transform="translate(-84.76264 -17.38585)" fill="#3f3d56"/><path d="M681.00382,111.59193V759.79188a29.13911,29.13911,0,0,1-29.13,29.11005h-263.15a29.0791,29.0791,0,0,1-29.13-29.11V111.59193a29.12749,29.12749,0,0,1,29.13-29.13h39.38v5.05a23.987,23.987,0,0,0,23.98,23.99h133.84a23.78923,23.78923,0,0,0,14.22-4.68,22.28455,22.28455,0,0,0,2.36-1.98,23.917,23.917,0,0,0,7.4-17.33v-5.05h41.97A29.12108,29.12108,0,0,1,681.00382,111.59193Z" transform="translate(-84.76264 -17.38585)" fill="#3f3d56"/><rect x="313.30389" y="298.74611" width="244.46459" height="186" fill="#00b0ff"/><path d="M269.334,284.79264c21.7658.4669,39.08024,16.24012,39.08024,16.24012s-17.97491,15.01622-39.74071,14.54931S229.59331,299.342,229.59331,299.342,247.56821,284.32574,269.334,284.79264Z" transform="translate(-84.76264 -17.38585)" fill="#00b0ff"/><path d="M159.90668,210.49465c19.66446,9.34222,42.21331,3.00713,42.21331,3.00713s-9.33355-21.48183-28.998-30.824-42.21331-3.00713-42.21331-3.00713S140.24221,201.15243,159.90668,210.49465Z" transform="translate(-84.76264 -17.38585)" fill="#00b0ff"/><path d="M161.90562,201.21087c21.68046-1.98136,40.65734,11.74679,40.65734,11.74679s-16.17409,16.94056-37.85456,18.92192-40.65734-11.74679-40.65734-11.74679S140.22516,203.19223,161.90562,201.21087Z" transform="translate(-84.76264 -17.38585)" fill="#3f3d56"/><path d="M241.37942,204.96448c-2.07806,21.67141,11.56528,40.70935,11.56528,40.70935s17.01256-16.09836,19.09062-37.76977S260.47,167.19472,260.47,167.19472,243.45749,183.29307,241.37942,204.96448Z" transform="translate(-84.76264 -17.38585)" fill="#3f3d56"/><path d="M343.48367,337.87457c-11.37151,18.56494-7.45916,41.65774-7.45916,41.65774s22.34921-7.00691,33.72072-25.57185,7.45917-41.65774,7.45917-41.65774S354.85519,319.30963,343.48367,337.87457Z" transform="translate(-84.76264 -17.38585)" fill="#3f3d56"/><path d="M310.49346,539.72316l1.65722-1.12011a51.91882,51.91882,0,0,1-9.16308-28.79249C303.034,494.753,310.43,480.8257,317.58281,467.357c1.32764-2.5,2.65088-4.99219,3.92383-7.48242a163.33418,163.33418,0,0,0,12.7041-31.89258c11.09473-41.23.17139-89.87353-29.21924-130.12207-23.31543-31.92871-58.07177-59.84863-106.2539-85.35547l-.93555,1.76758c47.90772,25.36133,82.44141,53.08936,105.57422,84.76758,29.03711,39.76367,39.8418,87.77246,28.90283,128.42285a161.39429,161.39429,0,0,1-12.55273,31.50195c-1.269,2.481-2.58741,4.96338-3.91016,7.45459-7.2666,13.6836-14.78076,27.833-14.82861,43.38575A53.937,53.937,0,0,0,310.49346,539.72316Z" transform="translate(-84.76264 -17.38585)" fill="#3f3d56"/><circle cx="19.00039" cy="178.74651" r="19" fill="#3f3d56"/><polygon points="286.462 487.161 167.193 477.222 167.193 302.294 286.462 296.331 286.462 487.161" fill="#00b0ff"/><polygon points="584.61 487.161 703.879 477.222 703.879 302.294 584.61 296.331 584.61 487.161" fill="#00b0ff"/><path d="M561.75659,385.94545a23.83091,23.83091,0,0,0-26.1499-3.32422,35.29319,35.29319,0,0,1-11.6073,3.32074,67.1811,67.1811,0,0,1,4.71862-25.51606l.52735-1.36132h-7.00977l-.20117.73584a77.58937,77.58937,0,0,0-1.843,8.725,22.62232,22.62232,0,0,0-1.46655-3.70257c-4.917-9.74854-16.27783-13.73584-16.75928-13.90039l-.96875-.332-.30908.97608c-.15332.48535-3.70068,11.99072,1.21582,21.73975,3.5202,6.97991,10.34271,11.00531,14.11151,12.78973a36.26579,36.26579,0,0,1-13.71844-3.66962,15.99952,15.99952,0,0,0-16.938,1.42969c-13.08838,9.9458-20.59522,24.5249-20.59522,39.99951,0,20.32813,13.16456,38.94434,33.53858,47.42676a15.08751,15.08751,0,0,0,5.79834,1.15137,15.37923,15.37923,0,0,0,7.85107-2.15332,20.76632,20.76632,0,0,1,20.8086-.042,15.34188,15.34188,0,0,0,13.66015.96192c20.25537-8.51563,33.34326-27.09961,33.34326-47.34473C579.76342,409.36488,573.36792,395.9015,561.75659,385.94545Zm-37.99072-24.88086h2.57373a68.95677,68.95677,0,0,0-4.356,24.24121h-.45947A72.747,72.747,0,0,1,523.76587,361.06459Zm-20.07618,11.3413c-3.73291-7.40087-2.0957-16.22216-1.37207-19.19873,2.82276,1.18457,10.88135,5.10157,14.6211,12.51612,3.73193,7.3999,2.0957,16.21972,1.37207,19.19775C515.48608,383.73255,507.42114,379.80531,503.68969,372.40589Zm41.95508,96.95069a13.32227,13.32227,0,0,1-11.8706-.84278,22.76607,22.76607,0,0,0-22.84424.04786,13.31121,13.31121,0,0,1-11.85938.875c-19.626-8.1709-32.30713-26.0625-32.30713-45.58106,0-14.84375,7.21875-28.84277,19.80518-38.40674a13.85584,13.85584,0,0,1,8.38574-2.7998,14.01605,14.01605,0,0,1,6.4253,1.55469,41.28479,41.28479,0,0,0,35.11669.20849,21.83042,21.83042,0,0,1,23.95752,3.05176c11.16211,9.56982,17.30957,22.49365,17.30957,36.3916C577.76342,443.29408,565.156,461.15345,545.64477,469.35658Z" transform="translate(-84.76264 -17.38585)" fill="#fff"/><path d="M311.26342,367.046v-2.34766h.93311v-7.314a2.95838,2.95838,0,0,0-1.58057-2.63721c-4.12744-2.15332-8.563-2.15088-13.18359.01026a2.98091,2.98091,0,0,0-1.70215,2.69726v7.24365h.93311v2.12549a16.2982,16.2982,0,0,0-11.89991,15.75782v15.82617l1.77735.59277-1.77735,1.18457v4.75586l1.77735.59277-1.77735,1.18506v4.75586l1.77735.59229-1.77735,1.18506v36.22265A10.66945,10.66945,0,0,0,295.42016,460.132h15.71045a10.64474,10.64474,0,0,0,10.63281-10.63281V413.25209l-1.77734-1.18506,1.77734-.59229v-4.75586l-1.77734-1.18506,1.77734-.59277v-4.75586l-1.77734-1.18457,1.77734-.59277V381.76429A15.64615,15.64615,0,0,0,311.26342,367.046Zm-12.98437-10.477c4.08447-1.90771,7.81787-1.92383,11.41113-.04834a.9755.9755,0,0,1,.50635.86377v3.91406H297.73022v-3.84375A.97494.97494,0,0,1,298.27905,356.569Zm21.48437,40.39746-4.28906,1.42969,4.28906,2.85937v2.24414l-4.28906,1.42969,4.28906,2.85987v2.24414l-4.28906,1.4292,4.28906,2.85986v35.17676a8.64276,8.64276,0,0,1-8.63281,8.63281H295.42016a8.66684,8.66684,0,0,1-8.65674-8.65723V414.3224l4.28907-2.85986-4.28907-1.4292V407.7892l4.28907-2.85987-4.28907-1.42969V401.2555l4.28907-2.85937-4.28907-1.42969V382.58168a14.31179,14.31179,0,0,1,11.12549-14.00831l.77442-.17919v-3.69581h10.60009v3.83008l.7212.20948a13.62951,13.62951,0,0,1,9.7788,13.02636Z" transform="translate(-84.76264 -17.38585)" fill="#fff"/><path d="M781.3269,394.43373l-5.03515-1.00635,1.18554-2.37109-2.30957-.46241.39942-2.40136-2.52149-.4209v-2.27783l-2.0459-.58448,1.94239-2.42724H769.572l.7041-1.75782-2.49219-.415.84571-2.96386h-2.69629v-2.76563h-1c-3.15039,0-4.90723,3.74219-5.48438,5.24073-17.39258,3.0332-67.8916,38.01171-73.65527,42.03417-2.39453-.77685-5.94629,1.04395-6.6875,1.44825l-1.17383.64013,1.69336,1.69287-.50488,1.51368,3.10742,1.165-.68067,1.70117,1.957,1.63183-1.75782,1.31934,2.64551,1.58789-.46484,2.32031,2.95508.42285v2.32227l1.71582.34375-.85547,2.998h1.90527v2.37109h1.85938l.84277,2.52539.86523-.17383c2.01172-.40234,3.73438-3.18554,4.40821-4.41992,16.75-2.98926,68.46386-39.373,73.498-42.936,5.876.7041,8.03516-.86621,8.2666-1.05079l.95606-.76513-2.2832-1.90186Zm-10.334,3.86279-.38965-.05225-.32129.228c-.57129.40576-57.28516,40.58545-73.45313,42.895l-.51855.07422-.23438.46875a12.00459,12.00459,0,0,1-2.47363,3.38183l-.65332-1.959h-1.30078v-2.37109h-1.25488l.72461-2.53321-2.23535-.44726v-2.418l-2.57813-.36816.32617-1.63086-1.30566-.78321,1.40234-1.05176-2.7832-2.31933.89941-2.25-3.21484-1.20606.28613-.85742-.62109-.62207c1.502-.624,3.31836-1.08838,4.09863-.62158l.55762.33447.53125-.373c.56738-.398,56.89648-39.79639,73.8457-42.10743l.63281-.08642.18848-.61035c.291-.94532,1.32617-3.3335,2.78516-4.15088v2.48584h2.0459l-.73438,2.56836,2.25.375-.87793,2.19336H768.78l-1.21973,1.5249,3.48535.9956V389.466l2.2207.37012-.38964,2.33984,1.6416.32764-1.18555,2.37109,2.86719.57373-1.47656.98389,2.123,1.76953A15.9767,15.9767,0,0,1,770.99292,398.29652Z" transform="translate(-84.76264 -17.38585)" fill="#fff"/><circle cx="435.53619" cy="540.74611" r="29" fill="#00b0ff"/><polygon points="453.795 537.882 438.4 537.882 438.4 522.487 432.672 522.487 432.672 537.882 417.277 537.882 417.277 543.61 432.672 543.61 432.672 559.005 438.4 559.005 438.4 543.61 453.795 543.61 453.795 537.882" fill="#fff"/><polygon points="527.001 541.746 512.001 534.746 512.001 538.746 477.001 538.746 477.001 544.746 512.001 544.746 512.001 548.746 527.001 541.746" fill="#fff"/><polygon points="344.072 541.746 359.072 534.746 359.072 538.746 394.072 538.746 394.072 544.746 359.072 544.746 359.072 548.746 344.072 541.746" fill="#fff"/><rect x="69.03643" y="771.74611" width="732.99951" height="2" fill="#3f3d56"/><rect x="339.53643" y="159.74611" width="191.99951" height="2" fill="#fff"/><rect x="340.00079" y="705.74611" width="192" height="2" fill="#fff"/><path d="M925.26342,525.632l-5,19s-18,40,0,42,19-52,19-52Z" transform="translate(-84.76264 -17.38585)" fill="#a0616a"/><path d="M956.26342,388.632l-36,142s14,4,21,9Z" transform="translate(-84.76264 -17.38585)" fill="#d0cde1"/><path d="M1069.26342,496.632l10,155s24,61,23,119c0,0-9,23-2,27s11,7,7,10-7,10-4,12,4,5,3,5h-30s6-15-3-19-4-14-4-14l-67-196-53,180s9,6,2,9-10-3-7,3-1,9-1,10-30-3-30-3,15-13,8-16-10-6-8-8,10-21,10-21,4-72,5-75,0-17,0-24-1-35,2-42,6-93,22-103S1069.26342,496.632,1069.26342,496.632Z" transform="translate(-84.76264 -17.38585)" fill="#2f2e41"/><path d="M942.26342,792.632s20,41,6,46-32,1-36,7-48,13-49-2,48-43,48-43l6.383-10.278Z" transform="translate(-84.76264 -17.38585)" fill="#2f2e41"/><path d="M1104.26342,822.632s20,41,6,46-32,1-36,7-48,13-49-2,48-43,48-43l6.38295-10.278Z" transform="translate(-84.76264 -17.38585)" fill="#2f2e41"/><circle cx="927.00079" cy="257.74611" r="33" fill="#a0616a"/><polygon points="949.501 275.246 945.501 304.246 915.501 327.246 907.501 316.246 907.501 278.246 949.501 275.246" fill="#a0616a"/><path d="M987.26342,329.632s31,3,47-8l32,189s-113,9-118,3v-59l20-96Z" transform="translate(-84.76264 -17.38585)" fill="#3f3d56"/><path d="M1031.5098,312.59576l10.75362,9.03621s44,7,41,19l-12,142,4,48s-34-9-60,0S1009.92,337.22863,1009.92,337.22863,1033.75617,315.55956,1031.5098,312.59576Z" transform="translate(-84.76264 -17.38585)" fill="#d0cde1"/><path d="M992.26342,323.54142s-32,23.09055-36,38.09055-17,173-17,173,6-3,9,2S997.26342,331.45087,992.26342,323.54142Z" transform="translate(-84.76264 -17.38585)" fill="#d0cde1"/><path d="M1080.26342,532.632l-7.16829,23.39148s-1.83171,43.60852-25.83171,37.60852,7-57,7-57l7-11Z" transform="translate(-84.76264 -17.38585)" fill="#a0616a"/><path d="M978.77927,273.69419s-3.57245-5.35868-2.19843-11.12957a33.7312,33.7312,0,0,0,.96181-10.03035s2.88544-9.34334,5.77089-14.56462,1.51142-7.41971,10.58-9.06854,5.35868-13.4654,29.26664-.687a7.01143,7.01143,0,0,0,7.28231,2.74805c4.94647-.96182,6.7327,5.90828,6.7327,5.90828s3.29765-1.92362,4.53427.82442,10.054-1.64932,10.054,16.89995-10.03387,35.11857-10.03387,35.11857.73558-31.20211-15.61527-34.36236-33.93831-12.36618-38.19777-.54961A90.08081,90.08081,0,0,1,978.77927,273.69419Z" transform="translate(-84.76264 -17.38585)" fill="#2f2e41"/><ellipse cx="957.32526" cy="259.42682" rx="3.22517" ry="4.30023" fill="#a0616a"/><path d="M1075.26342,333.632s16-4,21,23,11,104,11,104l-24,81s-24-13-29-11l18.88627-70.32086L1057.26342,388.632S1071.26342,333.632,1075.26342,333.632Z" transform="translate(-84.76264 -17.38585)" fill="#d0cde1"/><polygon points="967.237 372.614 988.237 442.614 967.237 513.614 979.237 442.614 967.237 372.614" opacity="0.15"/></svg>