<svg id="bffbd0e8-c318-47ff-a00e-27da9c50196d" data-name="Layer 1" xmlns="http://www.w3.org/2000/svg" width="834.62769" height="583.63092" viewBox="0 0 834.62769 583.63092"><rect y="559.39561" width="606.0958" height="2" fill="#e6e6e6"/><polygon points="176.231 534.986 211.132 534.986 233.439 339.663 274.453 534.986 298.002 534.986 298.002 302.07 186.038 268.562 176.231 534.986" fill="#2f2e41"/><path d="M470.09227,722.07044l32.72168,5.99732a8.55388,8.55388,0,0,0,9.53439-6.99493h0a8.55388,8.55388,0,0,0-4.07212-8.8508l-12.87755-7.60947L480.68814,683.364l-25.33482,4.90352v17.008A16.93828,16.93828,0,0,0,470.09227,722.07044Z" transform="translate(-182.68615 -158.18454)" fill="#2f2e41"/><path d="M380.78232,741.81108h0a17.3921,17.3921,0,0,0,16.89933-19.30845L394.0594,689.902H363.00382v34.52125A17.3921,17.3921,0,0,0,380.78232,741.81108Z" transform="translate(-182.68615 -158.18454)" fill="#2f2e41"/><circle cx="235.73959" cy="60.26911" r="30.43595" fill="#a0616a"/><path d="M390.79039,281.27589h55.57315c-7.65695-13.86152-12.50659-27.74338-9.807-41.67986H399.78017C400.50245,250.0196,396.06662,265.25557,390.79039,281.27589Z" transform="translate(-182.68615 -158.18454)" fill="#a0616a"/><path d="M371.17634,431.6503c32.65777,25.54026,68.70585,38.41383,109.5118,33.50735-17.23413-60.51126-22.34594-120.56424-5.72077-179.7955l-34.32459-15.52779-46.58338-2.45175-28.04254,8.2478A18.75086,18.75086,0,0,0,352.566,293.98769C353.55616,344.50116,358.19778,391.77473,371.17634,431.6503Z" transform="translate(-182.68615 -158.18454)" fill="#e6e6e6"/><path d="M484.673,513.32718h0A12.74567,12.74567,0,0,0,497.83212,498.055l-5.70245-27.99387H478.23638l-5.4098,28.131A12.74567,12.74567,0,0,0,484.673,513.32718Z" transform="translate(-182.68615 -158.18454)" fill="#a0616a"/><path d="M390.64159,471.98h0a12.74567,12.74567,0,0,0,1.48687-20.10446l-21.242-19.10379-11.16536,8.2679,12.39315,25.82688A12.74567,12.74567,0,0,0,390.64159,471.98Z" transform="translate(-182.68615 -158.18454)" fill="#a0616a"/><path d="M361.36931,447.1781l13.076-12.25879-14.71054-66.19743,7.76389-93.57538h0c-16.86542,5.30056-34.97444,19.53937-37.95716,36.9647L318.8722,374.44265Z" transform="translate(-182.68615 -158.18454)" fill="#e6e6e6"/><path d="M474.15012,470.06116l21.24856,2.45176-4.97519-157.78463A36.72688,36.72688,0,0,0,467.84057,281.984l-7.58374-3.15989L462.3,352.78546Z" transform="translate(-182.68615 -158.18454)" fill="#e6e6e6"/><path d="M389.2963,203.14815c2.92814-5.5245,6.64854-16.5348,12.55845-18.5768a46.98451,46.98451,0,0,1,10.11483-2.15477l10.04535,3.86362-5.46717-4.25212q1.59661-.09513,3.19149-.15553l6.7778,2.6068-3.4676-2.697c6.3188-.06485,12.84115.59216,17.73721,4.43881,4.17413,3.27926,8.30958,15.7018,8.9783,20.96744a40.10579,40.10579,0,0,1-.73731,15.10854l-1.71643,1.63213a21.05845,21.05845,0,0,1-1.34667-4.28653A20.30084,20.30084,0,0,0,436.247,206.4594l-.09345-.05271c-2.87889-1.62021-6.372-1.54552-9.6734-1.4267l-15.67916.56419c-3.77229.13575-7.83431.37443-10.77519,2.74068-1.98639,1.598-3.17655,3.957-4.30823,6.24114-1.46131,2.94945-4.317,14.07413-4.317,14.07413s-1.61563-2.09994-2.39-.537a54.04335,54.04335,0,0,1-2.2493-12.54356A24.57577,24.57577,0,0,1,389.2963,203.14815Z" transform="translate(-182.68615 -158.18454)" fill="#2f2e41"/><polygon points="178.275 174.987 167.65 217.484 191.759 277.788 173.371 220.753 178.275 174.987" opacity="0.2"/><polygon points="283.509 197.018 291.71 288.08 277.823 197.653 283.509 197.018" opacity="0.2"/><circle cx="584.68966" cy="334.83643" r="9.84302" fill="#e6e6e6"/><circle cx="625.70226" cy="334.83643" r="9.84302" fill="#e6e6e6"/><circle cx="666.71485" cy="334.83643" r="9.84302" fill="#e6e6e6"/><path d="M1010.1316,158.18454H704.64521a7.18488,7.18488,0,0,0-7.18226,7.18225v41.634h2.87293v-41.634a4.31585,4.31585,0,0,1,4.30933-4.30939H1010.1316a4.31586,4.31586,0,0,1,4.30938,4.30939V409.56436a4.3159,4.3159,0,0,1-4.30938,4.30939H967.8722v2.87286h42.2594a7.18488,7.18488,0,0,0,7.18225-7.18225V165.36679A7.18488,7.18488,0,0,0,1010.1316,158.18454Z" transform="translate(-182.68615 -158.18454)" fill="#e6e6e6"/><path d="M961.13159,204.18453H655.64523a7.18489,7.18489,0,0,0-7.18228,7.18228V455.56437a7.18489,7.18489,0,0,0,7.18228,7.18228H961.13159a7.18489,7.18489,0,0,0,7.18228-7.18228V211.36681A7.18489,7.18489,0,0,0,961.13159,204.18453ZM965.441,455.56437a4.31589,4.31589,0,0,1-4.30937,4.30937H655.64523a4.31589,4.31589,0,0,1-4.30937-4.30937V211.36681a4.31585,4.31585,0,0,1,4.30937-4.30937H961.13159a4.31585,4.31585,0,0,1,4.30937,4.30937Z" transform="translate(-182.68615 -158.18454)" fill="#3f3d56"/><path d="M808.38841,404.92622A71.46063,71.46063,0,1,1,879.849,333.46559,71.54144,71.54144,0,0,1,808.38841,404.92622Z" transform="translate(-182.68615 -158.18454)" fill="#00b0ff"/><path d="M836.58494,326.41656h-21.1473v-21.1475a7.04923,7.04923,0,0,0-14.09846,0v21.1475h-21.1475a7.04914,7.04914,0,0,0,0,14.09827h21.1475v21.14749a7.04923,7.04923,0,0,0,14.09846,0V340.51483h21.1473a7.04914,7.04914,0,1,0,0-14.09827Z" transform="translate(-182.68615 -158.18454)" fill="#fff"/><path d="M291.1135,657.90631a102.53234,102.53234,0,0,0-8.998-28.88666l-.64306-1.32977-4.77637,5.29584,3.53906-7.88837-.23144-.45782A188.614,188.614,0,0,0,269.636,606.65088l-.70166-1.07446-.936,1.03778.65527-1.46106-.32812-.49243c-4.686-7.02863-8.28614-11.47388-8.32178-11.51862l-1.01807-1.2525-.65478,1.49359c-.12012.27374-12.019,27.6922-13.59522,54.78607l-.0249.42224,8.0083,9.68012-8.167-5.127.01416,1.86091a79.26418,79.26418,0,0,0,.64892,9.5224q.53952,4.0751,1.27,7.9569a4.24334,4.24334,0,0,1,2.17163.67737q-.84621-4.33758-1.45965-8.91614c-.31543-2.43676-.51416-4.91229-.59326-7.38061l15.79687,9.91815-15.64355-18.90942c1.42431-22.907,10.26464-45.98609,12.74658-52.07758,1.332,1.7276,3.84472,5.08118,6.85058,9.561l-5.46435,12.182,7.79053-8.63818a186.516,186.516,0,0,1,9.32177,16.25183l-8.41455,18.75787,11.377-12.61547a100.38194,100.38194,0,0,1,8.17089,26.91992c1.99122,15.04107,1.60254,29.49-1.09472,40.68609-2.5835,10.725-7.13672,17.31714-12.49268,18.08741a8.46587,8.46587,0,0,1-3.30035-.19617,4.89839,4.89839,0,0,1-2.96076.90356H268.995a11.607,11.607,0,0,0,5.42365,1.45673,9.83957,9.83957,0,0,0,1.40283-.10077c6.29687-.90448,11.32568-7.88122,14.15918-19.643C292.7385,687.96,293.14231,673.22925,291.1135,657.90631Z" transform="translate(-182.68615 -158.18454)" fill="#e6e6e6"/><path d="M273.49,718.36224c-8.23682,0-20.1128-4.53125-31.89209-12.77929a50.89144,50.89144,0,0,1-4.957-3.98535l-1.31934-1.20508,4.98828-1.43653-6.64209-.24316-.28027-.29394c-12.4502-13.03907-20.19776-31.457-20.27491-31.64063l-.60546-1.45508,1.57421.07129c.15674.00684,3.89942.18359,9.52442.98145l.35058.0498v-.00293l1.2334.1875a123.751,123.751,0,0,1,13.6294,2.86426l.479.12988,1.49658,3.68653-.227-3.30665,1.37305.39649a66.22852,66.22852,0,0,1,18.32764,8.49707c17.91357,12.54394,27.82568,28.22168,22.58593,35.7041C281.06321,717.13959,277.76633,718.36127,273.49,718.36224ZM239.3469,701.31439c1.09424.92676,2.23291,1.8086,3.40088,2.63184,16.40674,11.48926,34.023,15.834,38.46777,9.48926,4.44385-6.34571-5.66553-21.415-22.0747-32.90528A64.16167,64.16167,0,0,0,242.76,672.71576l.8872,12.917-5.82812-14.35547c-3.83838-1.01855-7.76514-1.85644-11.69629-2.49609l.644,9.375-4.01123-9.87988c-3.10791-.42676-5.61328-.65821-7.13721-.77637,2.07764,4.5625,8.94288,18.65137,18.93653,29.24414l18.33008.6709Z" transform="translate(-182.68615 -158.18454)" fill="#e6e6e6"/></svg>