<svg id="b094bd64-f959-44d8-bdb5-f2e09395daf0" data-name="Layer 1" xmlns="http://www.w3.org/2000/svg" width="888.04816" height="718.66641" viewBox="0 0 888.04816 718.66641"><title>social_bio</title><path d="M510.00367,175.66824l5.333-21.03429a273.1326,273.1326,0,0,1,28.97793-10.39638l.67337,9.77548,2.73045-10.7696c12.212-3.48717,20.51983-5.02321,20.51983-5.02321s-11.222,42.67366-34.7592,75.29821L506.053,218.336l21.30654,3.072a110.50235,110.50235,0,0,1-9.53072,10.10012c-34.24,31.78208-72.377,46.36387-85.18129,32.56931s4.57281-50.74171,38.81285-82.52379c10.61475-9.85276,23.94913-17.75951,37.29676-23.98228Z" transform="translate(-155.97592 -90.6668)" fill="#e6e6e6"/><path d="M459.28287,152.82549l-6.30738-20.76292A273.1354,273.1354,0,0,1,472.408,108.18406l5.6294,8.02019L474.808,105.57362c8.6515-9.29758,14.9694-14.90682,14.9694-14.90682s12.45157,42.33121,9.1663,82.42572l-20.98772,18.30061,19.82728-8.3836a110.50442,110.50442,0,0,1-2.938,13.57259c-12.88282,44.90561-37.99241,77.10133-56.0839,71.91112s-22.31392-45.80087-9.43111-90.70648c3.9938-13.92119,11.32161-27.58228,19.53122-39.80867Z" transform="translate(-155.97592 -90.6668)" fill="#e6e6e6"/><path d="M873.00367,699.66824l5.333-21.03429a273.1326,273.1326,0,0,1,28.97793-10.39638l.67337,9.77548,2.73045-10.7696c12.212-3.48717,20.51983-5.02321,20.51983-5.02321s-11.222,42.67366-34.7592,75.29821L869.053,742.336l21.30654,3.072a110.50235,110.50235,0,0,1-9.53072,10.10012c-34.24,31.78208-72.377,46.36387-85.18129,32.56931s4.57281-50.74171,38.81285-82.52379c10.61475-9.85276,23.94913-17.75951,37.29676-23.98228Z" transform="translate(-155.97592 -90.6668)" fill="#e6e6e6"/><path d="M822.28287,676.82549l-6.30738-20.76292A273.1354,273.1354,0,0,1,835.408,632.18406l5.6294,8.02019L837.808,629.57362c8.6515-9.29758,14.9694-14.90682,14.9694-14.90682s12.45157,42.33121,9.1663,82.42572l-20.98772,18.30061,19.82728-8.3836a110.50442,110.50442,0,0,1-2.938,13.57259c-12.88282,44.90561-37.99241,77.10133-56.0839,71.91112s-22.31392-45.80087-9.43111-90.70648c3.9938-13.92119,11.32161-27.58228,19.53122-39.80867Z" transform="translate(-155.97592 -90.6668)" fill="#e6e6e6"/><rect x="0.04816" y="700.39601" width="888" height="2.24072" fill="#3f3d56"/><path d="M684.97592,332.74321l7.58429,75h62.41571l-3-114c0-24.53759-16.96289-46-41.5-46s-40.5,20.46241-40.5,45l-4,115h10.17645Z" transform="translate(-155.97592 -90.6668)" fill="#2f2e41"/><path d="M662.47592,404.24321l-6,52-16,75s-12,35,0,35,12-35,12-35l16-44,11-81Z" transform="translate(-155.97592 -90.6668)" fill="#a0616a"/><path d="M660.47592,493.24321s-6,30,2,74,10,63,10,63-6,7-2,11,0,12,0,12l7,68,31-5-2-62s4-8,2-10,2-14,2-14l5-95,31,104s-3,4,0,7,9,18,9,18l20,70,32-6-18-80s2-5-1-8a7.83343,7.83343,0,0,1-2-7s3-3-1-7-6-20-6-20-3-107-13-113S660.47592,493.24321,660.47592,493.24321Z" transform="translate(-155.97592 -90.6668)" fill="#2f2e41"/><path d="M681.47592,717.24321l5,43-2,19s-23,32,5,30,19-14,19-14l8.52348-5.424a4.41039,4.41039,0,0,0,1.97921-4.49515c-1.011-5.67943-3.46927-18.25563-6.50269-25.08082-4-9-6-46-6-46Z" transform="translate(-155.97592 -90.6668)" fill="#2f2e41"/><path d="M801.87532,714.70072l5.87353,42.88941,6.67178,17.90216s30.24891,25.25874,2.63388,30.29955-21.88943-8.82343-21.88943-8.82343l-9.60626-3.12882a4.41039,4.41039,0,0,1-3.037-3.86011c-.43628-5.75218-1.18956-18.54424.04729-25.91,1.631-9.71287-5.65269-46.044-5.65269-46.044Z" transform="translate(-155.97592 -90.6668)" fill="#2f2e41"/><circle cx="554.5" cy="198.57642" r="28" fill="#a0616a"/><path d="M696.47592,309.24321s8,27,0,35-10,11-10,11l23,31,40-49s-28-8-21-30Z" transform="translate(-155.97592 -90.6668)" fill="#a0616a"/><path d="M709.47592,373.24321l35.67629-37.61935s20.32371-2.38065,26.32371,3.61935l-6,121s4,3,2,10a28.56877,28.56877,0,0,0,0,14s6,7,3,10-111,1-111,1-4-7,2-11,3-15,3-15-2-3,3-8,9-46,9-46l-13-50S676.562,350.47269,691.519,349.358Z" transform="translate(-155.97592 -90.6668)" fill="#e6e6e6"/><path d="M758.47592,339.24321h13s3,0,6,10,7,35,7,35l-28,3Z" transform="translate(-155.97592 -90.6668)" fill="#e6e6e6"/><path d="M782.47592,380.24321l2,56,2,84s13,35-3,36-12-38-12-38l-13-135Z" transform="translate(-155.97592 -90.6668)" fill="#a0616a"/><path d="M667.47592,366.24321l-4-1s-9,18-10,34l-1,6,31,4Z" transform="translate(-155.97592 -90.6668)" fill="#e6e6e6"/><path d="M686.97592,284.74321c18.08411-9.74971,25.51276-9.33685,48,0l6-14.61816a10.39354,10.39354,0,0,0-10.38184-10.38184H690.35776a10.39354,10.39354,0,0,0-10.38184,10.38184Z" transform="translate(-155.97592 -90.6668)" fill="#2f2e41"/><polygon points="41.375 146.786 258.924 146.786 258.924 105.411 0 105.411 0 364.335 41.375 364.335 41.375 146.786" fill="#3f3d56"/><polygon points="293.625 397.702 76.076 397.702 76.076 439.076 335 439.076 335 180.152 293.625 180.152 293.625 397.702" fill="#3f3d56"/><rect x="22.68924" y="126.76566" width="290.95618" height="290.95618" fill="#00b0ff"/><rect x="70.87282" y="184.1561" width="34.5936" height="2.8828" fill="#fff"/><rect x="116.99762" y="184.1561" width="34.5936" height="2.8828" fill="#fff"/><rect x="184.02273" y="210.822" width="34.5936" height="2.8828" fill="#fff"/><rect x="230.86824" y="210.822" width="34.5936" height="2.8828" fill="#fff"/><rect x="163.84313" y="184.1561" width="101.61871" height="2.8828" fill="#fff"/><rect x="70.87282" y="210.822" width="101.61871" height="2.8828" fill="#fff"/><rect x="70.87282" y="237.48791" width="101.61871" height="2.8828" fill="#fff"/><rect x="194.83323" y="237.48791" width="70.62861" height="2.8828" fill="#fff"/><rect x="70.87282" y="281.58638" width="34.5936" height="2.8828" fill="#fff"/><rect x="116.99762" y="281.58638" width="34.5936" height="2.8828" fill="#fff"/><rect x="184.02273" y="308.25228" width="34.5936" height="2.8828" fill="#fff"/><rect x="230.86824" y="308.25228" width="34.5936" height="2.8828" fill="#fff"/><rect x="163.84313" y="281.58638" width="101.61871" height="2.8828" fill="#fff"/><rect x="70.87282" y="308.25228" width="101.61871" height="2.8828" fill="#fff"/><rect x="70.87282" y="334.91819" width="101.61871" height="2.8828" fill="#fff"/><rect x="194.83323" y="334.91819" width="70.62861" height="2.8828" fill="#fff"/></svg>