<svg id="bcc9b610-7a91-4b40-ac6c-fb3fc22936db" data-name="Layer 1" xmlns="http://www.w3.org/2000/svg" width="894.13386" height="610.92645" viewBox="0 0 894.13386 610.92645"><title>our_solution</title><ellipse cx="447.06693" cy="582.86506" rx="447.06693" ry="28.06139" fill="#d0cde1"/><rect x="187.06693" width="520" height="212.12996" fill="#3f3d56"/><path d="M414.73461,223.50775H375.96583a135.59539,135.59539,0,0,1,0-46.22431h38.76878A83.17317,83.17317,0,0,0,414.73461,223.50775Z" transform="translate(-152.93307 -144.53678)" fill="#ff6584"/><path d="M495.48058,210.5604h38.76878a135.59539,135.59539,0,0,0,0-46.22431H495.48058A83.17317,83.17317,0,0,1,495.48058,210.5604Z" transform="translate(-152.93307 -144.53678)" fill="#00b0ff"/><path d="M738.68418,232.32879q30.72924.32313,61.3953-1.89753l-1.35765-1.78223c-3.3465,8.47956-3.25434,17.41687-2.81076,26.3871.11114,2.24744.81617,5.27813.36014,7.50414-.5735,2.7994-3.08646,2.13016-5.58565,2.211q-8.25718.267-16.51825.38375-7.8017.11025-15.60456.08687-3.67175-.01151-7.34333-.05213c-2.87434-.032-6.14158.8026-6.88384-2.52675-.47546-2.13264.0033-4.93771.00476-7.13094l.00536-8.0223.01071-16.04462a1.40878,1.40878,0,0,0-2.81588,0l-.0131,19.61008-.00595,8.91368c-.00118,1.77053-.369,3.90959.292,5.59047,1.52065,3.86649,8.09169,2.41587,11.24169,2.44486q9.638.08871,19.27638-.02925,9.63771-.1167,19.27143-.4375c2.76674-.092,6.59541.53726,7.43464-2.87507.58838-2.39236-.09759-5.51166-.22313-7.95288-.14327-2.78594-.29716-5.57251-.33455-8.36243-.08732-6.51487.55107-12.85282,2.95715-18.94947a1.41435,1.41435,0,0,0-1.35765-1.78223q-30.65064,2.22018-61.3953,1.89752a1.40879,1.40879,0,0,0,0,2.81589Z" transform="translate(-152.93307 -144.53678)" fill="#f1f1f1"/><path d="M744.52257,233.8589a206.61455,206.61455,0,0,1,25.59007,11.05083c7.42112,3.8352,17.13645,8.0247,22.24368,14.87932,1.07037,1.4366,3.51584.03419,2.43143-1.42123-5.21531-6.99969-14.19377-11.11832-21.73556-15.09674a211.57474,211.57474,0,0,0-27.781-12.12748c-1.71033-.609-2.44643,2.11075-.74858,2.7153Z" transform="translate(-152.93307 -144.53678)" fill="#f1f1f1"/><path d="M799.60074,228.84416c-9.30525,3.9791-17.18871,11.64552-25.50443,17.32619q-13.50157,9.22323-27.80676,17.16693c-1.5824.88362-.16416,3.31673,1.42123,2.43143q14.27478-7.97115,27.80676-17.16693c8.314-5.6795,16.20147-13.34807,25.50443-17.32619,1.66116-.71034.22824-3.13678-1.42123-2.43143Z" transform="translate(-152.93307 -144.53678)" fill="#f1f1f1"/><path d="M556.49167,237.583q28.47249.43315,56.9429-.22705c1.80911-.042,1.81573-2.858,0-2.81589q-28.46811.6602-56.9429.22706a1.40879,1.40879,0,0,0,0,2.81588Z" transform="translate(-152.93307 -144.53678)" fill="#f1f1f1"/><path d="M558.08821,250.3497q29.27037.467,58.53877-.25141c1.80888-.0444,1.81571-2.86046,0-2.81588q-29.26528.71842-58.53877.25141a1.40879,1.40879,0,0,0,0,2.81588Z" transform="translate(-152.93307 -144.53678)" fill="#f1f1f1"/><path d="M555.95244,264.13438l55.34631-2.57015c1.80437-.08379,1.81461-2.90015,0-2.81588l-55.34631,2.57015c-1.80438.08379-1.81462,2.90015,0,2.81588Z" transform="translate(-152.93307 -144.53678)" fill="#f1f1f1"/><path d="M642.16436,250.74588h52.68143a1.40879,1.40879,0,0,0,0-2.81589H642.16436a1.40879,1.40879,0,0,0,0,2.81589Z" transform="translate(-152.93307 -144.53678)" fill="#f1f1f1"/><path d="M692.53794,234.647l8.23079,7.51283c.94129.85919,3.5305,2.633,4.11539,3.75642,1.2093,2.32265-.09,1.79279-2.1622,2.59762a46.33114,46.33114,0,0,0-13.85762,8.60489c-1.36229,1.20044.63556,3.18565,1.99113,1.99114a43.01954,43.01954,0,0,1,12.61506-7.88073c1.6604-.65685,4.81066-1.04151,5.59958-3.01938.96555-2.42069-2.10964-4.20692-3.56662-5.53681l-10.97438-10.01711c-1.33616-1.21961-3.33306.76625-1.99113,1.99113Z" transform="translate(-152.93307 -144.53678)" fill="#f1f1f1"/><path d="M564.68777,344.5699h38.76878a135.59545,135.59545,0,0,0,0-46.22432H564.68777A83.173,83.173,0,0,1,564.68777,344.5699Z" transform="translate(-152.93307 -144.53678)" fill="#00b0ff"/><path d="M403.24373,309.84066h38.76878a135.59545,135.59545,0,0,0,0-46.22432H403.24373A83.17321,83.17321,0,0,1,403.24373,309.84066Z" transform="translate(-152.93307 -144.53678)" fill="#00b0ff"/><path d="M648.22568,208.46881h38.76878a135.59539,135.59539,0,0,0,0-46.22431H648.22568A83.17317,83.17317,0,0,1,648.22568,208.46881Z" transform="translate(-152.93307 -144.53678)" fill="#00b0ff"/><polygon points="880.902 534.848 885.955 555.062 863.721 561.126 861.699 539.902 880.902 534.848" fill="#fbbebe"/><polygon points="800.048 560.115 800.048 579.318 777.813 583.361 773.771 573.254 781.856 556.072 800.048 560.115" fill="#fbbebe"/><path d="M997.45083,495.44255l-3.032,27.28818,2.02135,52.555a2.96952,2.96952,0,0,1,3.032,3.032c0,3.032-3.032,2.02134,0,4.04269a52.50719,52.50719,0,0,0,5.05336,3.032l32.34154,98.03529s-8.08538,10.10673-23.24548,7.07471l-3.032-10.10673s-6.064-6.064-6.064-9.096,2.02135-4.0427,0-7.07472S972.184,599.54188,972.184,599.54188l-14.14942-25.26682-4.04269,34.36288s8.08538,43.459,6.064,63.67241-6.064,41.4376-6.064,41.4376l-24.25616-4.0427a16.87516,16.87516,0,0,0-3.032-9.096c-3.032-4.0427-7.07471-3.032-3.032-6.064s9.09606,0,5.05337-4.0427-4.04269-8.08538-4.04269-8.08538v-3.032l-6.064-77.82183-11.11741-102.078Z" transform="translate(-152.93307 -144.53678)" fill="#2f2e41"/><circle cx="775.79199" cy="139.67509" r="27.28817" fill="#fbbebe"/><polygon points="799.543 140.18 810.66 167.469 784.383 186.671 768.212 158.373 799.543 140.18" fill="#fbbebe"/><path d="M953.99189,305.436l10.10673-5.05337,6.064,14.14942s39.41625,12.12808,36.38423,67.7151-10.10673,76.81116-10.10673,76.81116,17.18144,36.38423,7.07471,40.42692-96.014,19.20279-98.03529,5.05337,7.07471-97.02462,7.07471-97.02462-3.032-59.62971,22.23481-71.75779l-5.05337-11.11741Z" transform="translate(-152.93307 -144.53678)" fill="#d0cde1"/><path d="M898.40487,501.50659s-23.24549,24.25616-10.10674,30.32019,21.22414-27.28817,21.22414-27.28817Z" transform="translate(-152.93307 -144.53678)" fill="#fbbebe"/><path d="M945.9065,718.80131l11.11741-4.04269s12.12807,27.28817,2.02134,27.28817h-26.2775s-15.1601-5.05336-23.24548-5.05336-23.24548-15.1601-12.12808-22.23481,25.26683-5.05337,25.26683-5.05337l4.04269-9.096,5.05337,14.14942S937.82112,724.86535,945.9065,718.80131Z" transform="translate(-152.93307 -144.53678)" fill="#2f2e41"/><path d="M1027.771,696.5665s6.329-3.99354,9.73388-2.5021,5.42622,17.6622,5.42622,17.6622,10.10673,12.12808-12.12808,14.14942-27.28817-2.02134-29.30952-8.08538,2.02135-12.12808,2.02135-12.12808l6.064-2.02134s7.07471-5.05337,5.05336-7.07472,0-6.064,0-6.064S1021.707,704.65189,1027.771,696.5665Z" transform="translate(-152.93307 -144.53678)" fill="#2f2e41"/><path d="M938.05871,283.77459a13.39189,13.39189,0,0,0-.59355-2.59665c-1.46665-3.077-7.18914-2.17889-8.20879-5.43145-.19956-.63657-.15783-1.329-.35338-1.96682-.49863-1.62638-2.41144-2.433-4.11075-2.35491a22.20621,22.20621,0,0,0-4.9271,1.26871c-3.99806,1.13465-8.25163.70153-12.384.25919a12.45986,12.45986,0,0,1-5.28749-1.37646c-1.56495-.96269-2.6925-2.90068-2.12279-4.64747.54624-1.6748,2.379-2.59509,3.20305-4.15209,1.30853-2.47236-.291-5.66551.77052-8.25355,1.70288-4.15163,8.14726-3.318,11.42132-6.38662.79472-.74485,1.367-1.697,2.1287-2.47558,2.25994-2.30989,5.829-2.757,9.04478-2.43837s6.37586,1.263,9.6069,1.20584c3.06417-.05419,6.27616-.9873,9.09956.20454a12.97816,12.97816,0,0,1,4.27443,3.51145l7.24178,7.94244a8.92569,8.92569,0,0,1,2.23833,3.3715c.43569,1.52181.03466,3.15569.22054,4.72768.4239,3.58516,3.78034,6.29313,4.23321,9.87474a12.84113,12.84113,0,0,1-.15974,3.32567l-1.01441,7.47936a5.56573,5.56573,0,0,1-.57154,2.09587c-.295.504-.741.90206-1.07313,1.38243-.93768,1.35633-.85207,3.14918-1.31808,4.73086-.466,1.5815-2.1369,3.14674-3.59859,2.38447-.95359-.4973-1.58449-4.60992-2.7429-5.67766-1.61352-1.48724-2.45646-1.30394-4.448-1.27877C944.63881,288.55335,939.335,288.89534,938.05871,283.77459Z" transform="translate(-152.93307 -144.53678)" fill="#2f2e41"/><path d="M942.87448,342.83091s30.3202,12.12808,21.22414,39.41625-33.35222,111.174-33.35222,111.174L916.597,500.49592l-4.04269,11.1174-19.20279-7.07471,3.032-15.1601s1.01067-1.01067,1.01067-5.05336-4.04269-5.05337,1.01068-5.05337,5.05336-5.05336,5.05336-5.05336L921.65035,361.023S921.65035,341.82024,942.87448,342.83091Z" transform="translate(-152.93307 -144.53678)" fill="#d0cde1"/><polygon points="812.682 243.269 781.351 350.4 768.212 363.539 775.792 349.895 812.682 243.269" opacity="0.1"/><polygon points="60.867 179.123 92.628 184.417 103.215 134.128 77.63 123.541 60.867 179.123" fill="#2f2e41"/><circle cx="104.53881" cy="141.62754" r="27.34998" fill="#a0616a"/><path d="M245.5614,301.60382s2.64678,33.52577-17.64514,36.17255,17.64514,62.64026,27.35,61.758,27.35-65.287,27.35-65.287-22.93869-15.88063-14.99837-29.99675Z" transform="translate(-152.93307 -144.53678)" fill="#a0616a"/><path d="M211.5945,423.79645s3.529,25.58546,14.11612,25.58546-7.05806-29.11449-7.05806-29.11449Z" transform="translate(-152.93307 -144.53678)" fill="#a0616a"/><path d="M365.98952,449.38191s26.46772,22.05643,22.93869,29.11449-26.46772-7.94032-28.23223-25.58546Z" transform="translate(-152.93307 -144.53678)" fill="#a0616a"/><path d="M206.301,534.07861l-16.76289,62.64026L171.01067,672.593h17.64514s6.1758-23.82095,17.64515-36.17255c0,0,11.46934-19.40966,11.46934-32.64352l27.35-64.40478Z" transform="translate(-152.93307 -144.53678)" fill="#a0616a"/><path d="M278.64605,537.60763l5.29354,59.11124s-.88225,42.34835,0,52.05318,0,23.82095,0,23.82095h15.88064s14.99837-52.05318,10.58708-80.28542l6.1758-66.16929Z" transform="translate(-152.93307 -144.53678)" fill="#a0616a"/><path d="M257.47188,375.2723s-23.77-18.83744-17.61966-45.15014c0,0-23.84643,1.03728-33.55126,10.74211s2.64677,42.34834,2.64677,42.34834,21.17417,35.29029,17.64514,51.17093-41.46609,99.69507-29.11449,104.98861,87.34347,23.82095,125.28053-7.05806c0,0,9.70483-87.34347-29.11449-115.5757V394.682s7.05806-6.1758,3.529-22.05643c0,0,14.99838-27.35,6.1758-32.64352s-29.08869-13.05117-29.08869-13.05117S275.99928,366.44973,257.47188,375.2723Z" transform="translate(-152.93307 -144.53678)" fill="#2f2e41"/><path d="M211.5945,340.86427s-11.46935-1.76452-22.93869,14.99837-41.46609,43.2306-27.35,56.46446S213.359,434.38354,213.359,434.38354l8.82258-15.88064-37.93707-18.5274,31.76127-23.82094Z" transform="translate(-152.93307 -144.53678)" fill="#2f2e41"/><path d="M298.938,340.86427s12.3516,0,17.64514,14.99837,36.17255,66.16929,36.17255,66.16929l17.64515,27.35L358.0492,463.498l-34.408-38.81931L290.99765,370.861Z" transform="translate(-152.93307 -144.53678)" fill="#2f2e41"/><path d="M192.18484,670.82848h-24.7032l-5.29355,43.23061S148.072,736.99778,169.24615,734.351s14.11612-26.46771,14.11612-26.46771l5.29354-8.82258,1.76452,18.52741,1.76451-.88226V696.41394S201.88967,687.59137,192.18484,670.82848Z" transform="translate(-152.93307 -144.53678)" fill="#2f2e41"/><path d="M304.23151,670.82848,281.29282,669.064l-4.41128,49.4064s-2.64678,18.52741,13.23386,15.88063,10.58708-17.64514,10.58708-17.64514v-27.35Z" transform="translate(-152.93307 -144.53678)" fill="#2f2e41"/><path d="M237.62109,258.37321s-12.853,4.28435-13.5057,21.20419a30.01118,30.01118,0,0,0,.89217,8.03436c.72373,3.0672,1.189,9.66685-4.41983,18.29121a181.06166,181.06166,0,0,0-10.27641,17.67686l-.04021.08042,14.11612,1.76451,3.00155-23.39848a116.51542,116.51542,0,0,1,9.25237-32.84814l.09768-.21784s6.1758,11.46934,18.5274,11.46934l-4.41128-4.41128s19.40966,7.94031,26.46772,7.94031c0,0,5.29354,3.529,0,8.82258s-15.88064,17.64514-9.70483,27.35.88225,12.3516.88225,12.3516l9.70483-5.29354,4.41129-2.64677v3.529l22.93869-2.64678s6.1758-.88225-7.05806-15.88063c0,0-3.49462-5.82436-1.96569-10.84779a25.3388,25.3388,0,0,0,.96317-11.85005C294.5296,270.30684,282.89764,237.42436,237.62109,258.37321Z" transform="translate(-152.93307 -144.53678)" fill="#2f2e41"/><path d="M739.07324,753.742c-.12009-.19624-2.95174-4.92435-3.93344-14.74238-.90045-9.00752-.32144-24.19041,7.5526-45.36928,14.91715-40.122-3.43774-72.49457-3.62529-72.817l.90556-.52534a80.36,80.36,0,0,1,7.58173,21.47834,93.70288,93.70288,0,0,1-3.88081,52.22892c-14.89159,40.05349-3.82051,59.01446-3.70706,59.2015Z" transform="translate(-152.93307 -144.53678)" fill="#3f3d56"/><circle cx="580.30721" cy="467.11771" r="6.80291" fill="#3f3d56"/><circle cx="601.76255" cy="492.23616" r="6.80291" fill="#3f3d56"/><circle cx="587.11012" cy="508.98179" r="6.80291" fill="#00b0ff"/><circle cx="604.90236" cy="523.11092" r="6.80291" fill="#00b0ff"/><circle cx="581.87711" cy="545.08957" r="6.80291" fill="#3f3d56"/><path d="M743.183,753.99237s-6.80292-16.74563,13.60582-29.30486Z" transform="translate(-152.93307 -144.53678)" fill="#3f3d56"/><path d="M734.81647,753.68862s-3.09607-17.80759-27.05912-17.655Z" transform="translate(-152.93307 -144.53678)" fill="#3f3d56"/><path d="M464.8754,704.29c-.1201-.19624-2.95175-4.92435-3.93345-14.74238-.90045-9.00752-.32144-24.19041,7.5526-45.36928,14.91715-40.122-3.43774-72.49457-3.62529-72.817l.90556-.52534a80.35958,80.35958,0,0,1,7.58173,21.47834,93.70278,93.70278,0,0,1-3.88081,52.22892c-14.89159,40.05348-3.8205,59.01446-3.707,59.2015Z" transform="translate(-152.93307 -144.53678)" fill="#d0cde1"/><circle cx="306.10936" cy="417.66575" r="6.80291" fill="#3f3d56"/><circle cx="327.5647" cy="442.78421" r="6.80291" fill="#3f3d56"/><circle cx="312.91227" cy="459.52984" r="6.80291" fill="#d0cde1"/><circle cx="330.70451" cy="473.65897" r="6.80291" fill="#d0cde1"/><circle cx="307.67926" cy="495.63761" r="6.80291" fill="#3f3d56"/><path d="M468.98515,704.54042s-6.80291-16.74563,13.60583-29.30486Z" transform="translate(-152.93307 -144.53678)" fill="#d0cde1"/><path d="M460.61862,704.23666s-3.09607-17.80759-27.05911-17.655Z" transform="translate(-152.93307 -144.53678)" fill="#d0cde1"/></svg>