<svg id="f106239e-11e8-4e13-86a1-113d5b2bcf51" data-name="Layer 1" xmlns="http://www.w3.org/2000/svg" width="854" height="537.52555" viewBox="0 0 854 537.52555"><path d="M906.14921,615.78508H265.31071a16.51867,16.51867,0,0,1-16.5-16.5V204.13127a12.10184,12.10184,0,0,1,12.08789-12.08838H910.35209a12.31112,12.31112,0,0,1,12.29712,12.29736V599.28508A16.51868,16.51868,0,0,1,906.14921,615.78508Z" transform="translate(-173 -181.23723)" fill="#f2f2f2"/><path d="M882.77192,595.41824H285.52717c-8.755,0-15.87756-6.66992-15.87756-14.86816V236.4451c0-6.08008,5.278-11.02686,11.76562-11.02686H886.68891c6.59522,0,11.9607,5.02832,11.9607,11.2085V580.55008C898.64961,588.74832,891.5268,595.41824,882.77192,595.41824Z" transform="translate(-173 -181.23723)" fill="#fff"/><path d="M922.41947,206.18742H248.57914V197.787a16.57376,16.57376,0,0,1,16.56006-16.5498H905.85941a16.57368,16.57368,0,0,1,16.56006,16.5498Z" transform="translate(-173 -181.23723)" fill="#00b0ff"/><circle cx="105.6745" cy="12.5" r="4.28342" fill="#fff"/><circle cx="121.93331" cy="12.5" r="4.28342" fill="#fff"/><circle cx="138.19211" cy="12.5" r="4.28342" fill="#fff"/><path d="M566.48224,551.01969H358.64374a17.51989,17.51989,0,0,1-17.5-17.5V282.36589a13.10307,13.10307,0,0,1,13.08789-13.08838H570.68512a13.31242,13.31242,0,0,1,13.29712,13.29736V533.51969A17.51981,17.51981,0,0,1,566.48224,551.01969ZM354.23163,271.27751a11.10062,11.10062,0,0,0-11.08789,11.08838v251.1538a15.51744,15.51744,0,0,0,15.5,15.5h207.8385a15.51752,15.51752,0,0,0,15.5-15.5V282.57487a11.31,11.31,0,0,0-11.29712-11.29736Z" transform="translate(-173 -181.23723)" fill="#ccc"/><path d="M374.64377,533.5197h175.8385a16,16,0,0,0,16-16V302.97185a16,16,0,0,0-16-16H374.64377a16,16,0,0,0-16,16V517.5197A16,16,0,0,0,374.64377,533.5197Z" transform="translate(-173 -181.23723)" fill="#e6e6e6"/><path d="M511.063,330.74578h-97a6.5,6.5,0,0,1,0-13h97a6.5,6.5,0,1,1,0,13Z" transform="translate(-173 -181.23723)" fill="#fff"/><path d="M511.063,471.74578h-97a6.5,6.5,0,0,1,0-13h97a6.5,6.5,0,1,1,0,13Z" transform="translate(-173 -181.23723)" fill="#fff"/><path d="M511.063,502.74578h-97a6.5,6.5,0,0,1,0-13h97a6.5,6.5,0,1,1,0,13Z" transform="translate(-173 -181.23723)" fill="#fff"/><circle cx="290.06302" cy="206.00855" r="39" fill="#fff"/><path d="M713.94709,351.50869,696.91047,355.102a1.00015,1.00015,0,0,0-.68555,1.43109l1.5874,3.12738-77.04443,39.10724a.99991.99991,0,1,0,.90527,1.7832l77.04444-39.10718,1.5874,3.12763a.99984.99984,0,0,0,1.55957.29156l12.957-11.63159A1,1,0,0,0,713.94709,351.50869Z" transform="translate(-173 -181.23723)" fill="#e6e6e6"/><path d="M713.94709,448.71511l-17.03662-3.59327a1.00015,1.00015,0,0,1-.68555-1.43109l1.5874-3.12738-77.04443-39.10724a.99991.99991,0,1,1,.90527-1.7832l77.04444,39.10718,1.5874-3.12763a.99984.99984,0,0,1,1.55957-.29156l12.957,11.63159A1,1,0,0,1,713.94709,448.71511Z" transform="translate(-173 -181.23723)" fill="#e6e6e6"/><path d="M770.10236,373.76277a22,22,0,1,1,22-22A22.02489,22.02489,0,0,1,770.10236,373.76277Zm0-42a20,20,0,1,0,20,20A20.02276,20.02276,0,0,0,770.10236,331.76277Z" transform="translate(-173 -181.23723)" fill="#e6e6e6"/><path d="M770.10236,470.76277a22,22,0,1,1,22-22A22.02489,22.02489,0,0,1,770.10236,470.76277Zm0-42a20,20,0,1,0,20,20A20.02276,20.02276,0,0,0,770.10236,428.76277Z" transform="translate(-173 -181.23723)" fill="#e6e6e6"/><path id="a52d33ee-34c0-426d-bf77-f0f4463d7cbc" data-name="Path 395" d="M768.35855,362.60362a2.93035,2.93035,0,0,1-1.76292-.58589l-.03154-.02366-6.64008-5.07944a2.9508,2.9508,0,1,1,3.59066-4.6836l4.30091,3.29813,10.16327-13.25911a2.94956,2.94956,0,0,1,4.13542-.54624l.00085.00064-.06307.08759.06478-.08759a2.95311,2.95311,0,0,1,.54559,4.13625l-11.95423,15.58867a2.95136,2.95136,0,0,1-2.347,1.15075Z" transform="translate(-173 -181.23723)" fill="#e6e6e6"/><path d="M760.55642,458.30872a1.49992,1.49992,0,0,1,0-2.12132L777.527,439.21683a1.5,1.5,0,0,1,2.12132,2.12132l-16.97056,16.97057A1.49993,1.49993,0,0,1,760.55642,458.30872Z" transform="translate(-173 -181.23723)" fill="#e6e6e6"/><path d="M778.6483,458.30872a1.49991,1.49991,0,0,0,0-2.12132l-16.97056-16.97057a1.5,1.5,0,0,0-2.12132,2.12132L776.527,458.30872A1.49993,1.49993,0,0,0,778.6483,458.30872Z" transform="translate(-173 -181.23723)" fill="#e6e6e6"/><path d="M808.09016,400.91609a1.3743,1.3743,0,0,1-.19434-.01416,1.32092,1.32092,0,0,1-.874-.521L798.847,389.419a.32954.32954,0,0,0-.56714.0669l-4.19165,9.80664a1.32949,1.32949,0,0,1-2.50976-.18994l-8.36426-32.375a1.32945,1.32945,0,0,1,1.97339-1.47119L813.828,382.51131a1.32941,1.32941,0,0,1-.53418,2.45947L802.70246,386.189a.32961.32961,0,0,0-.22656.52442l8.17456,10.96142a1.33157,1.33157,0,0,1-.27124,1.86084l-1.49707,1.11621A1.32045,1.32045,0,0,1,808.09016,400.91609Z" transform="translate(-173 -181.23723)" fill="#00b0ff"/><path d="M854.60236,424.76277h-36a10,10,0,0,1,0-20h36a10,10,0,0,1,0,20Z" transform="translate(-173 -181.23723)" fill="#00b0ff"/><path d="M418.32258,355.65193l-1.49707-1.11621a1.33157,1.33157,0,0,1-.27124-1.86084l8.17456-10.96142a.3296.3296,0,0,0-.22657-.52442l-10.5913-1.21826a1.32941,1.32941,0,0,1-.53418-2.45947l28.64038-17.25488a1.32945,1.32945,0,0,1,1.97339,1.47119l-8.36426,32.375a1.3295,1.3295,0,0,1-2.50977.18994l-4.19165-9.80664a.32954.32954,0,0,0-.56714-.0669l-8.1748,10.96192a1.321,1.321,0,0,1-.874.521,1.37452,1.37452,0,0,1-.19434.01416A1.32043,1.32043,0,0,1,418.32258,355.65193Z" transform="translate(-173 -181.23723)" fill="#3f3d56"/><path d="M362.60236,369.76277a10.0113,10.0113,0,0,1,10-10h36a10,10,0,0,1,0,20h-36A10.0113,10.0113,0,0,1,362.60236,369.76277Z" transform="translate(-173 -181.23723)" fill="#3f3d56"/><path d="M896.3512,551.03341a10.05577,10.05577,0,0,0-.69264-15.40376l11.17984-33.941-17.92249,4.85985-7.86885,31.48587a10.11027,10.11027,0,0,0,15.30414,12.999Z" transform="translate(-173 -181.23723)" fill="#a0616a"/><path d="M1003.85353,549.03341a10.05576,10.05576,0,0,1,.69263-15.40376l-11.17984-33.941,17.92249,4.85985,7.86885,31.48587a10.11027,10.11027,0,0,1-15.30413,12.999Z" transform="translate(-173 -181.23723)" fill="#a0616a"/><circle cx="778.32283" cy="173.68835" r="24.56103" fill="#a0616a"/><polygon points="755.138 525.359 742.879 525.359 737.046 478.071 755.141 478.071 755.138 525.359" fill="#a0616a"/><path d="M931.26489,718.4804l-39.53052-.00146v-.5a15.38607,15.38607,0,0,1,15.38648-15.38623h.001l24.14379.001Z" transform="translate(-173 -181.23723)" fill="#2f2e41"/><polygon points="797.138 525.359 784.879 525.359 779.046 478.071 797.141 478.071 797.138 525.359" fill="#a0616a"/><path d="M973.26489,718.4804l-39.53052-.00146v-.5a15.38607,15.38607,0,0,1,15.38648-15.38623h.001l24.14379.001Z" transform="translate(-173 -181.23723)" fill="#2f2e41"/><path d="M927.93806,692.77451l-14.40064-.04a4.43823,4.43823,0,0,1-3.45923-1.04,4.50342,4.50342,0,0,1-1.57837-3.32031l1.65894-159.376,66.45605-.66407-3.855,158.86524a4.4738,4.4738,0,0,1-4.49853,4.3916H953.41169a4.48624,4.48624,0,0,1-4.49707-4.33106l-3.59375-95.34961a.47536.47536,0,0,0-.49243-.48144.492.492,0,0,0-.50611.4668L931.817,688.64951A4.50419,4.50419,0,0,1,927.93806,692.77451Z" transform="translate(-173 -181.23723)" fill="#2f2e41"/><path d="M940.33674,539.85557c-9.81909,0-20.19605-1.75391-29.56275-6.88282a4.539,4.539,0,0,1-2.36206-3.88671l-1.30957-72.73829-1.8435-15.56445a47.41231,47.41231,0,0,1,23.59839-46.80957l.85156-.48535,2.39819-5.59668a2.47892,2.47892,0,0,1,2.36914-1.51367l32.24268.9209a2.51011,2.51011,0,0,1,2.30029,1.709l1.49756,4.49316a47.19358,47.19358,0,0,1,23.13867,48.17872L980.439,529.14854a4.49718,4.49718,0,0,1-2.83984,3.53027C971.75056,534.90049,956.83478,539.85557,940.33674,539.85557Z" transform="translate(-173 -181.23723)" fill="#3f3d56"/><path d="M1003.34431,529.99229a2.51078,2.51078,0,0,1-2.33619-1.59864l-16.37207-42.374L971.24714,420.003a13.00985,13.00985,0,0,1,5.3247-13.27344h0a13.0189,13.0189,0,0,1,20.27686,8.54688l3.74683,22.48046,18.5813,86.05762a2.5104,2.5104,0,0,1-1.87134,2.96l-13.39283,3.15137A2.46223,2.46223,0,0,1,1003.34431,529.99229Z" transform="translate(-173 -181.23723)" fill="#3f3d56"/><path d="M897.86042,529.99229a2.46645,2.46645,0,0,1-.56885-.06641L883.899,526.77451a2.51042,2.51042,0,0,1-1.87109-2.96l18.58569-86.08105,3.74243-22.457a13.0189,13.0189,0,0,1,20.27686-8.54688h0a13.00987,13.00987,0,0,1,5.32471,13.27344l-13.36524,65.93554L900.1966,528.39463A2.51131,2.51131,0,0,1,897.86042,529.99229Z" transform="translate(-173 -181.23723)" fill="#3f3d56"/><path d="M970.43992,378.35614c-2.274,1.30843-11.26246,2.176-11.90278-.36827l-.01372-.0559c-.44575-1.86411-.0756-3.81068.05233-5.72308s-.05925-4.01326-1.36175-5.41937c-2.428-2.62114-6.74755-1.23165-10.25843-1.89439a8.6643,8.6643,0,0,1-6.74007-9.25292c.05-.3975.12841-.79544.21633-1.19315a6.67288,6.67288,0,0,0-6.92675-8.08129c-3.5481.20288-7.378,1.27789-10.31357-1.35012-2.2701-2.03223-2.824-7.32236-1.82654-10.20133,1.67623-4.83831,12.4137-7.37125,17.10186-8.76367a40.62028,40.62028,0,0,1,34.43036,5.64954c2.96118,2.08724,5.72661,4.70984,6.98873,8.10576s.65322,7.68029-2.19278,9.92206a18.332,18.332,0,0,1,4.24619,17.80643C980.53364,372.06589,973.82488,376.40847,970.43992,378.35614Z" transform="translate(-173 -181.23723)" fill="#2f2e41"/><path d="M286.56884,514.34652a10.05578,10.05578,0,0,1-8.66684-12.7531l-29.27422-20.49388,17.26536-6.83675,25.15233,20.50948a10.11027,10.11027,0,0,1-4.47663,19.57425Z" transform="translate(-173 -181.23723)" fill="#ffb8b8"/><path d="M270.67144,498.76831l-26.511-15.376A22.05582,22.05582,0,0,1,233.52325,469.155a21.1392,21.1392,0,0,1,3.19629-16.48632l21.94629-32.3711a10.96935,10.96935,0,0,1,18.979,10.88086l-17.137,35.90527,17.36035,15.28614a4.50608,4.50608,0,0,1,1.42529,4.32519l-1.96533,9.127a4.4527,4.4527,0,0,1-2.57812,3.168,4.45563,4.45563,0,0,1-4.07862-.22168Z" transform="translate(-173 -181.23723)" fill="#3f3d56"/><path d="M390.79478,426.837a10.05577,10.05577,0,0,1-14.26293,5.85872l-26.07641,24.43359-3.13974-18.30234,25.24395-20.39661a10.11028,10.11028,0,0,1,18.23513,8.40664Z" transform="translate(-173 -181.23723)" fill="#ffb8b8"/><circle cx="110.99155" cy="188.96394" r="24.56103" fill="#ffb8b8"/><polygon points="183.308 524.961 195.059 521.465 187.165 474.477 169.822 479.637 183.308 524.961" fill="#ffb8b8"/><path d="M352.16946,703.25345l23.14116-6.88547.00094-.00028a15.38606,15.38606,0,0,1,19.135,10.36005l.14257.47924L356.70021,718.4804Z" transform="translate(-173 -181.23723)" fill="#2f2e41"/><polygon points="54.57 524.359 66.829 524.359 72.662 477.071 60.568 477.071 54.57 524.359" fill="#ffb8b8"/><path d="M224.44247,701.59368l24.14379-.001h.001a15.38605,15.38605,0,0,1,15.38648,15.38623v.5l-39.53052.00146Z" transform="translate(-173 -181.23723)" fill="#2f2e41"/><path d="M347.53692,689.2732,301.55084,556.94605a1.47051,1.47051,0,0,0-1.38233-1.00684,1.433,1.433,0,0,0-1.427.94239l-52.989,132.46777a4.47877,4.47877,0,0,1-4.39649,2.82324l-13.83056-.6709a4.49968,4.49968,0,0,1-4.14331-5.60156l50.123-197.54394,50.28711-4.10352.32837.47363c.27173.39258,27.178,40.00293,27.16138,108.38965l17.241,93.86621a4.5006,4.5006,0,0,1-4.42578,5.31348H351.78765A4.50394,4.50394,0,0,1,347.53692,689.2732Z" transform="translate(-173 -181.23723)" fill="#2f2e41"/><path d="M255.58087,443.54956a31.28947,31.28947,0,0,1,5.35449-30.16894,30.90084,30.90084,0,0,1,28.08594-11.24024q.62512.08351,1.24243.16895h0a31.273,31.273,0,0,1,26.72168,26.21484l9.39136,59.7295-53.54053,4.041-.38428.02832Z" transform="translate(-173 -181.23723)" fill="#3f3d56"/><path d="M333.71,467.78589a21.13723,21.13723,0,0,1-15.342-7.38867l-25.32666-29.35937a11.32169,11.32169,0,0,1-2.865-8.03028,10.85875,10.85875,0,0,1,4.09936-7.9541,10.98307,10.98307,0,0,1,13.99121.23633l30.20386,25.88574,18.582-12.92676a4.49564,4.49564,0,0,1,4.6023-.32031l8.89355,4.502a4.50049,4.50049,0,0,1,1.13818,7.208l-22.113,21.96192a21.17422,21.17422,0,0,1-15.01123,6.20117Q334.13775,467.80152,333.71,467.78589Z" transform="translate(-173 -181.23723)" fill="#3f3d56"/><path d="M302.66841,364.06711a32.00187,32.00187,0,0,0,9.55439,2.10248c3.29273.04118,6.793-1.09945,8.59486-3.60725a8.98567,8.98567,0,0,0,.9889-7.43916,17.6705,17.6705,0,0,0-9.75235-11.45715,20.76073,20.76073,0,0,0-15.9175-.51234c-1.848-5.61765-8.8082-8.675-15.25043-8.84795-13.1597-.35318-24.92634,8.61993-30.64391,19.40963s-6.5529,23.123-6.9084,35.09692c-.0867,2.92023-.123,5.96521,1.26027,8.60151,2.05983,3.92569,6.7406,6.03983,11.15249,7.71631a209.368,209.368,0,0,0,35.66714,10.02594c-5.83957-3.73249-7.6918-11.76636-3.993-17.31923,1.80971-2.71683,4.78123-4.97867,5.26207-8.12523.57655-3.77291-2.64253-7.07235-3.83335-10.72421a10.89764,10.89764,0,0,1,3.1091-11.25,13.66643,13.66643,0,0,1,12.3377-2.9257" transform="translate(-173 -181.23723)" fill="#2f2e41"/><path d="M422,718.76277H174a1,1,0,0,1,0-2H422a1,1,0,0,1,0,2Z" transform="translate(-173 -181.23723)" fill="#ccc"/><path d="M1026,718.76277H850a1,1,0,0,1,0-2h176a1,1,0,0,1,0,2Z" transform="translate(-173 -181.23723)" fill="#ccc"/></svg>