<?xml version="1.0" encoding="utf-8"?>
<!-- Generator: Adobe Illustrator 19.2.1, SVG Export Plug-In . SVG Version: 6.00 Build 0)  -->
<svg version="1.1" id="Layer_1" xmlns="http://www.w3.org/2000/svg" xmlns:xlink="http://www.w3.org/1999/xlink" x="0px" y="0px"
	 width="52.4px" height="55.7px" viewBox="0 0 52.4 55.7" enable-background="new 0 0 52.4 55.7" xml:space="preserve">
<g>
	<g>
		<path fill="#5C487D" d="M35.4,33.1c-0.1-1.6-0.3-3.3-0.7-5c-0.3-1.4-0.7-2.7-1.2-4.1c-1-2.8-2.4-5.4-3.9-7.7c-1-1.4-2-2.7-3.2-3.8
			c-1.2,1.1-2.3,2.4-3.3,3.8c-1.6,2.2-3,4.8-4.1,7.6c-0.6,1.4-1,2.8-1.3,4.3c-0.4,1.7-0.7,3.3-0.8,5c-0.5,5.8,0.8,11.1,3.5,14.8
			c0,0,0.1,0,0.1,0c1.4,1.9,3.3,3.4,5.5,4.3c2.2-0.8,4.1-2.3,5.6-4.1c0,0,0,0,0,0C34.4,44.3,35.7,39,35.4,33.1z M21.7,34.1
			c0.1-1.6,0.3-3.3,0.8-4.9c0.3-1.2,0.7-2.4,1.1-3.5c0.7-1.9,1.6-3.6,2.7-5.2c1,1.6,1.9,3.4,2.6,5.3c0.4,1.1,0.7,2.3,1,3.5
			c0.4,1.7,0.6,3.3,0.6,4.9c0.1,2.2-0.1,4.3-0.7,6.2c-0.5,1.7-1.5,4.5-3.8,6.2c0,0,0,0,0,0c0,0,0,0-0.1,0c-2.2-1.8-3.2-4.6-3.7-6.4
			C21.7,38.4,21.6,36.3,21.7,34.1z"/>
		<path fill="#FFEA82" d="M26.2,5c5.3,0,10.4,1.5,14.1,4c1.8,1.3,4.9,4,4.9,7.8s-3.1,6.5-4.9,7.8c-3.6,2.5-8.8,4-14.1,4
			c-5.3,0-10.4-1.5-14.1-4c-1.8-1.3-4.9-4-4.9-7.8s3.1-6.5,4.9-7.8C15.8,6.4,20.9,5,26.2,5 M26.2,0C13,0,2.3,7.5,2.3,16.8
			C2.3,26,13,33.5,26.2,33.5c13.2,0,23.9-7.5,23.9-16.8C50.2,7.5,39.4,0,26.2,0L26.2,0z"/>
		<path fill="#5C487D" d="M13.7,10.5c2.9,0,6.2,1.7,9.1,4.6l3.4,3.5l3.5-3.4c2.9-2.8,6.2-4.4,9-4.4c0.9,0,1.8,0.2,2.6,0.5
			c3.5,1.4,4.9,5.2,5.5,7.4c1.1,4.3,0.6,9.6-1.4,14.6c-5.5,11.5-19.6,17-19.6,17s-14.8-5-19.3-17.5c-2-5-2.2-10.3-1-14.6
			c0.6-2.2,2.1-6,5.7-7.2C12.1,10.7,12.9,10.5,13.7,10.5L13.7,10.5 M13.7,5.6c-1.4,0-2.8,0.2-4.1,0.7C0.9,9.4-2.5,22,2,34.5
			c5.7,15.2,24,21.3,23.9,21.2c0,0,0,0,0.1,0c0,0,0,0,0,0c1.4,0.6,19.3-8.3,24.3-20.6c4.8-12.3,1.7-25-6.9-28.4
			c-1.4-0.6-2.9-0.8-4.4-0.8c-4.2,0-8.7,2.1-12.5,5.7C22.6,7.8,18.1,5.6,13.7,5.6L13.7,5.6z"/>
		<g>
			<defs>
				<path id="SVGID_1_" d="M35.6,36.7h-6.1c-1.4,0-2.6-1.2-2.6-2.6v-5.6c0-1.4,1.2-2.6,2.6-2.6h6.1c1.4,0,2.6,1.2,2.6,2.6v5.6
					C38.2,35.5,37.1,36.7,35.6,36.7z"/>
			</defs>
			<clipPath id="SVGID_2_">
				<use xlink:href="#SVGID_1_"  overflow="visible"/>
			</clipPath>
			<path clip-path="url(#SVGID_2_)" fill="#5C487D" d="M35.3,33c-0.1-1.6-0.3-3.3-0.7-5c-0.3-1.4-0.7-2.7-1.2-4.1
				c-1-2.8-2.4-5.4-3.9-7.7c-1-1.4-2-2.7-3.2-3.8c-1.2,1.1-2.3,2.4-3.3,3.8c-1.6,2.2-3,4.8-4.1,7.6c-0.6,1.4-1,2.8-1.3,4.3
				c-0.4,1.7-0.7,3.3-0.8,5c-0.5,5.8,0.8,11.1,3.5,14.8c0,0,0.1,0,0.1,0c1.4,1.9,3.3,3.4,5.5,4.3c2.2-0.8,4.1-2.3,5.6-4.1
				c0,0,0,0,0,0C34.3,44.2,35.7,38.9,35.3,33z M21.7,34c0.1-1.6,0.3-3.3,0.8-4.9c0.3-1.2,0.7-2.4,1.1-3.5c0.7-1.9,1.6-3.6,2.7-5.2
				c1,1.6,1.9,3.4,2.6,5.3c0.4,1.1,0.7,2.3,1,3.5c0.4,1.7,0.6,3.3,0.6,4.9c0.1,2.2-0.1,4.3-0.7,6.2c-0.5,1.7-1.5,4.5-3.8,6.2
				c0,0,0,0,0,0c0,0,0,0-0.1,0c-2.2-1.8-3.2-4.6-3.7-6.4C21.7,38.2,21.5,36.2,21.7,34z"/>
		</g>
	</g>
</g>
</svg>
