<?xml version="1.0" ?><svg id="Layer_1" style="enable-background:new 0 0 1000 1000;" version="1.1" viewBox="0 0 1000 1000" xml:space="preserve" xmlns="http://www.w3.org/2000/svg" xmlns:xlink="http://www.w3.org/1999/xlink"><style type="text/css">
	.st0{fill:#3B579D;}
	.st1{fill:#FFFFFF;}
</style><title/><g><path class="st0" d="M500,1000L500,1000C223.9,1000,0,776.1,0,500v0C0,223.9,223.9,0,500,0h0c276.1,0,500,223.9,500,500v0   C1000,776.1,776.1,1000,500,1000z"/><path class="st1" d="M630,1000V612.7h130l19.5-150.9H630v-96.4c0-43.7,12.1-73.5,74.8-73.5l79.9,0V157   c-13.8-1.8-61.3-5.9-116.5-5.9c-115.2,0-194.1,70.3-194.1,199.5v111.3H343.8v150.9h130.3V1000H630z" id="f"/></g></svg>