<svg id="Capa_2" data-name="Capa 2" xmlns="http://www.w3.org/2000/svg" viewBox="0 0 50 50"><defs><style>.cls-1{fill:#757575;}</style></defs><title>Agile</title><path class="cls-1" d="M50,41.77l-4.85-5.35v3.23H40.67a18.16,18.16,0,0,1-5.43,4.25h9.91v3.23Z"/><path class="cls-1" d="M27,11.65A16.08,16.08,0,0,0,11.76,32.94L9,33.92l6.67,2.78,3.43-6.36-3.3,1.17A11.82,11.82,0,1,1,27,39.6v0H0l2.17,2.12L0,43.89H27.19A16.12,16.12,0,0,0,27,11.65Z"/><path class="cls-1" d="M22.12,9.73l-2.3-6.84L18.3,6.35l.22-.65a8.41,8.41,0,0,0-8,14.46l2.76-3.32a4.08,4.08,0,0,1,3.58-7.12l-1.3,3Z"/></svg>