<svg id="Capa_2" data-name="Capa 2" xmlns="http://www.w3.org/2000/svg" viewBox="0 0 50 50"><defs><style>.cls-1{fill:#757575;}</style></defs><title>iconStartup</title><rect class="cls-1" x="23.96" y="3.82" width="1" height="34.16"/><rect class="cls-1" x="23.63" y="24.37" width="14.27" height="1" transform="translate(-8.07 17.33) rotate(-27.97)"/><path class="cls-1" d="M30.08,27a4.5,4.5,0,0,1-2-.4l-.25-.13,0-.28c0-.11-.12-2.65,3.2-4.36a8.82,8.82,0,0,1,6.2-.8l.52.16-.21.51a9.32,9.32,0,0,1-4.33,4.56A7.45,7.45,0,0,1,30.08,27Zm-1.24-1.17a5.47,5.47,0,0,0,4-.48,8.18,8.18,0,0,0,3.54-3.48,8.19,8.19,0,0,0-4.86.85A4.34,4.34,0,0,0,28.83,25.85Z"/><rect class="cls-1" x="18.62" y="20.95" width="1" height="11.83" transform="translate(-13.58 31.17) rotate(-62.06)"/><path class="cls-1" d="M19.69,28.73a6.26,6.26,0,0,1-2.63-.62,7.81,7.81,0,0,1-3.63-3.83l-.21-.51.52-.16a7.41,7.41,0,0,1,5.2.67c2.8,1.44,2.7,3.61,2.7,3.7l0,.28-.25.13A3.82,3.82,0,0,1,19.69,28.73Zm-5-4.27a6.64,6.64,0,0,0,2.84,2.74,4.53,4.53,0,0,0,3.14.41,3.58,3.58,0,0,0-2.13-2.44A6.73,6.73,0,0,0,14.64,24.46Z"/><rect class="cls-1" x="8.5" y="34.67" width="32.58" height="4.44"/><polygon class="cls-1" points="37.37 46.97 12.21 46.97 10.28 38.71 39.31 38.71 37.37 46.97"/><path class="cls-1" d="M24.54,16.81l-.17,0a4.88,4.88,0,0,1-3.72-5c0-4,3.27-8.48,3.41-8.67l.45-.61.38.66C25,3.37,28.28,9,28.28,11.8c0,3-3.44,4.85-3.58,4.92ZM24.42,4.33c-.88,1.36-2.77,4.59-2.77,7.43a3.82,3.82,0,0,0,2.74,4c.63-.38,2.9-1.89,2.9-3.95S25.28,5.92,24.42,4.33Z"/></svg>