<svg id="Capa_2" data-name="Capa 2" xmlns="http://www.w3.org/2000/svg" viewBox="0 0 50 50"><defs><style>.cls-1{fill:#757575;}</style></defs><title>UXDesign</title><path class="cls-1" d="M3.46,10.84,39.16,46.54l7.38-7.38L10.84,3.46ZM39.16,44.61,5.39,10.84l5.46-5.46,2.32,2.32-2,2,1,1,2-2,2.17,2.17-2,2,1,1,2-2L19.42,14l-2,2,1,1,2-2,2.16,2.16-2,2,1,1,2-2,2.17,2.17-2,2,1,1,2-2,2.17,2.17-2,2,1,1,2-2,2.16,2.16-2,2,1,1,2-2,2.17,2.17-2,2,1,1,2-2,2.17,2.17-2,2,1,1,2-2,2.16,2.16-2,2,1,1,2-2,2.32,2.32Z"/><path class="cls-1" d="M19.11,36.38l3.07-3.07-.08-.08a3.3,3.3,0,0,0,.47-.44L45,6.83a.79.79,0,0,0-1.11-1.11l-26,22.43a3.58,3.58,0,0,0-.34.34s-.06.09-.1.14l-.09-.09L14.33,31.6a7.68,7.68,0,0,0-3.57,2.06c-2.42,2.42-1.68,4.42-6,10.44,3.32,1.47,9.82-1.74,12.24-4.16A7.68,7.68,0,0,0,19.11,36.38Z"/></svg>