<svg xmlns="http://www.w3.org/2000/svg" viewBox="0 0 76.35 30"><defs><style>.cls-1{fill:#f4992c;}</style></defs><title>logo_osoco_1</title><g id="Capa_2" data-name="Capa 2"><g id="Capa_1-2" data-name="Capa 1"><path class="cls-1" d="M71.53,26l-.11-.07a15.23,15.23,0,0,0-6.5-3.25l-.42-.09.39-.19a8.21,8.21,0,0,0,2.26-1.61A7.86,7.86,0,0,0,69.54,15a8,8,0,0,0-2.4-5.79,8.14,8.14,0,0,0-2.26-1.63l-.39-.19.42-.09a15.25,15.25,0,0,0,6.5-3.23l.1-.08.13.11.29.27A14.38,14.38,0,0,1,76.35,15a14.25,14.25,0,0,1-4.42,10.59l-.3.27Zm0-21.75h0Z"/><path class="cls-1" d="M61.34,30c-.51,0-1,0-1.49-.07l-.44-.06-.25,0-.68-.1c-.24,0-.47-.1-.74-.17l-.17,0-.41-.1c-.3-.09-.6-.19-.85-.28l-.09,0-.3-.11c-.33-.13-.65-.27-.92-.4l-.27-.13c-.33-.17-.66-.35-1-.54l-.18-.11c-.36-.23-.69-.45-1-.69l-.07-.05c-.26-.2-.54-.41-.81-.65s-.61-.52-.92-.83A14.29,14.29,0,0,1,46.36,15a14.3,14.3,0,0,1,2.77-8.69,16,16,0,0,1,1.63-1.93l0,0,.05,0c.23-.22.48-.45.8-.73s.55-.45.82-.66l.18-.14c.32-.23.63-.44.93-.63l.15-.09c.32-.2.65-.38,1-.55L55,1.4c.28-.13.61-.28,1-.42l.2-.08.16-.05c.3-.11.59-.21.89-.29l.34-.08L57.87.4l.61-.14.46-.07.57-.08.41,0H60C60.46,0,60.9,0,61.3,0h.37c.33,0,.72,0,1.09,0l.46.06.34,0,.57.08.66.14.21,0,.43.11.83.26.39.14c.33.13.62.25.9.38l.24.11c.37.18.69.35,1,.52l.05,0a15.25,15.25,0,0,1,1.88,1.32l.14.12-.14.12a14.29,14.29,0,0,1-9.34,3.28H61l-.25,0-.37,0-.46.06h-.08l-.24,0-.47.12-.09,0-.19.05-.48.17-.07,0-.17.07-.49.23-.07,0-.13.07-.49.3-.06,0-.11.07c-.16.11-.32.24-.53.4l-.1.08c-.2.17-.4.36-.59.55A8,8,0,0,0,53.17,15a8.56,8.56,0,0,0,.09,1.21,7.89,7.89,0,0,0,2.29,4.53l.13.12c.15.15.3.29.46.42l.17.13.07.06.39.29.19.12.13.08.34.21.21.11.21.1.27.13.24.09.16.06.32.11.3.08.07,0,.39.09.32.06H60l.41.06.34,0,.66,0a14.22,14.22,0,0,1,9.33,3.31l.14.12-.14.12A15.41,15.41,0,0,1,68.84,28l-.1.06c-.27.16-.57.31-.93.49l-.09,0-.22.1c-.26.12-.53.23-.84.35l-.46.16-.76.24-.62.15-.12,0-.56.12c-.28,0-.56.08-.85.12l-.18,0-.34,0c-.43,0-.88.06-1.34.06Z"/><path class="cls-1" d="M45.75,11.88l-.19-.39A8.32,8.32,0,0,0,44,9.25,8.1,8.1,0,0,0,41.7,7.62l-.39-.19.42-.09a15.27,15.27,0,0,0,6.5-3.23l.1-.08.13.12.29.27.28.3.08.1-.06.12a15.18,15.18,0,0,0-3.23,6.52Z"/><path class="cls-1" d="M38.16,30a14.37,14.37,0,0,1-10.58-4.38l-.27-.29-.11-.12.08-.11a15,15,0,0,0,3.23-6.52l.09-.42.19.39a8.25,8.25,0,0,0,1.58,2.22,8.17,8.17,0,0,0,11.58,0,8.3,8.3,0,0,0,1.6-2.22l.19-.39.09.42a15.05,15.05,0,0,0,3.22,6.51l.09.1-.09.1-.11-.1.09.12-.28.3A14.42,14.42,0,0,1,38.16,30ZM27.42,25.23h0Z"/><path class="cls-1" d="M15,30c-.48,0-1,0-1.45-.07l-.24,0-.2,0c-.31,0-.62-.08-.92-.13l-.52-.11-.13,0-.64-.15-.77-.24-.44-.15c-.33-.13-.61-.24-.87-.36l-.15-.07-.12-.06c-.37-.18-.68-.34-1-.53l0,0a15.31,15.31,0,0,1-1.85-1.29L5.5,26.6l.14-.12A14.16,14.16,0,0,1,15,23.18h.5l.12,0,.4,0,.38-.05.4-.07.37-.09.38-.1.29-.1.16-.06.26-.1.32-.15.15-.08.21-.11.4-.25.09-.06.16-.1c.16-.11.31-.23.45-.34l.06,0,.11-.08c.22-.18.41-.36.6-.55s.37-.38.55-.6l.09-.12.08-.1c.11-.14.21-.27.31-.41l.11-.17.09-.15.21-.34.09-.18.09-.18c.05-.11.11-.22.16-.33l.1-.25,0-.08c.05-.14.1-.26.14-.38l.07-.25,0-.09c0-.13.07-.27.1-.4s0-.2.05-.3V16.4c0-.14,0-.27.06-.41s0-.23,0-.37l0-.63c0-.47,0-1,.07-1.44l0-.16c0-.42.1-.83.18-1.25v0c.07-.39.16-.77.26-1.13l0-.14c.11-.38.22-.71.33-1l.08-.2c.13-.35.27-.66.4-.94l.08-.16,0-.09c.15-.3.29-.56.43-.8l.14-.23.06-.1c.14-.23.29-.45.43-.66l.31-.43.44-.56c.39-.48.74-.86,1.09-1.22s.61-.58.91-.84.5-.41.77-.62l.23-.18c.32-.23.62-.44.92-.62l.14-.08c.35-.21.68-.4,1-.56l.11-.05.15-.07c.36-.17.65-.3.93-.41L33,.89l.11,0c.33-.12.6-.21.89-.29l.08,0,.37-.09.27-.07.59-.13.26,0h0l.18,0,.55-.08.38,0h.07c.49,0,.94-.06,1.38-.06h.15c.43,0,.86,0,1.26.06l.57.07.35,0,.43.06c.29.05.58.12.83.18l.09,0,.37.09c.27.07.55.16.88.27l.35.13c.33.13.63.25.92.39l.23.11c.37.18.69.35,1,.53l0,0a15.45,15.45,0,0,1,1.87,1.31l.14.12-.14.12a14.29,14.29,0,0,1-9.33,3.28h-.36l-.26,0-.37,0-.47.07L36.4,7,36,7.11h-.05l-.27.08-.41.15-.09,0-.22.09-.32.15-.17.09-.2.1L33.88,8l-.13.08-.18.12-.35.27-.13.1-.15.12c-.21.18-.41.36-.59.55s-.37.39-.53.6l-.08.1-.06.08c-.12.15-.23.3-.33.45l-.07.12-.07.11c-.09.15-.18.29-.26.44l-.08.17,0,.09c-.07.14-.14.29-.2.43l-.08.21,0,.07c-.05.14-.11.29-.15.43s-.05.19-.08.3-.08.29-.11.44,0,.23-.06.35,0,.27-.06.41,0,.24,0,.37v.14h0V15a16.12,16.12,0,0,1-.21,2.6v0c-.06.38-.14.75-.24,1.14l0,.14c-.09.32-.19.66-.31,1l-.07.21c-.1.28-.22.57-.37.91l0,.06-.11.25c-.11.24-.24.49-.41.78l-.21.37c-.13.21-.27.44-.44.69l-.27.39c-.14.2-.31.41-.49.64l-.08.1-.09.12c-.33.39-.68.77-1,1.13-.21.22-.45.42-.69.63l-.22.2c-.26.23-.54.45-.85.68l-.05,0c-.34.25-.67.48-1,.69l-.15.09c-.35.21-.68.39-1,.55l0,0-.21.1c-.35.17-.65.3-.94.41l-.28.1-.19.06c-.25.09-.52.18-.78.26l-.5.12-.29.07-.53.12c-.32.06-.67.11-1.09.15l-.27,0C16,30,15.49,30,15,30Z"/><path class="cls-1" d="M4.82,26l-.14-.12-.28-.26A14.28,14.28,0,0,1,0,15,14.41,14.41,0,0,1,4.4,4.41,14.33,14.33,0,0,1,15,0a14.37,14.37,0,0,1,10.6,4.41l.26.28.13.14-.08.1a15.18,15.18,0,0,0-3.22,6.53l-.09.42-.19-.39a8.32,8.32,0,0,0-1.6-2.25A7.91,7.91,0,0,0,15,6.82,7.79,7.79,0,0,0,9.18,9.25,8,8,0,0,0,6.82,15,7.88,7.88,0,0,0,9.2,20.77a8.11,8.11,0,0,0,2.24,1.62l.39.19-.42.09a15.17,15.17,0,0,0-6.49,3.25Z"/></g></g></svg>