<svg xmlns="http://www.w3.org/2000/svg" viewBox="0 0 300 135.84"><defs><style>.cls-1{fill:#fff;}</style></defs><title>panel-logo</title><g id="Capa_2" data-name="Capa 2"><g id="Capa_1-2" data-name="Capa 1"><path class="cls-1" d="M0,129.52a4.21,4.21,0,0,1,.25-1.47A3.41,3.41,0,0,1,1,126.82,3.71,3.71,0,0,1,2.43,126a5.86,5.86,0,0,1,2-.31,5.82,5.82,0,0,1,2,.31,3.71,3.71,0,0,1,1.38.85,3.36,3.36,0,0,1,.79,1.23,4.39,4.39,0,0,1,0,2.92,3.35,3.35,0,0,1-.79,1.23,3.71,3.71,0,0,1-1.39.85,5.88,5.88,0,0,1-2,.31,5.34,5.34,0,0,1-2.52-.53,3.39,3.39,0,0,1-1.46-1.4A4,4,0,0,1,0,129.52Zm1.95,0a2.83,2.83,0,0,0,.25,1.2,2,2,0,0,0,.81.88,2.74,2.74,0,0,0,1.42.33,2.74,2.74,0,0,0,1.42-.33,2,2,0,0,0,.81-.88,3,3,0,0,0,0-2.41,2,2,0,0,0-.81-.89,2.74,2.74,0,0,0-1.42-.33,2.74,2.74,0,0,0-1.42.33,2,2,0,0,0-.81.89A2.84,2.84,0,0,0,1.95,129.52Z"/><path class="cls-1" d="M14.72,130.86h2a1,1,0,0,0,.64,1,3.26,3.26,0,0,0,1.33.27,3.75,3.75,0,0,0,1.37-.23q.58-.23.58-.7a.63.63,0,0,0-.17-.46,1.5,1.5,0,0,0-.67-.29,14.26,14.26,0,0,0-1.5-.26q-1-.14-1.57-.26a3.76,3.76,0,0,1-1-.35,1.52,1.52,0,0,1-.63-.6,2,2,0,0,1-.21-1,1.81,1.81,0,0,1,1.12-1.83,6.12,6.12,0,0,1,2.47-.49,8.72,8.72,0,0,1,1.65.16,3.35,3.35,0,0,1,1.5.71,2.07,2.07,0,0,1,.72,1.59H20.49a1.11,1.11,0,0,0-.71-.95,3.52,3.52,0,0,0-1.32-.24,2.74,2.74,0,0,0-.87.12,1.42,1.42,0,0,0-.56.32.55.55,0,0,0-.19.39.7.7,0,0,0,.12.46,1,1,0,0,0,.5.24q.38.1,1.35.24,1.48.21,2.23.4a2.68,2.68,0,0,1,1.21.61,1.58,1.58,0,0,1,.46,1.22,2,2,0,0,1-1.08,1.87,6.13,6.13,0,0,1-2.89.58,9,9,0,0,1-1.35-.1,5,5,0,0,1-1.26-.36,2.49,2.49,0,0,1-1-.77A2.15,2.15,0,0,1,14.72,130.86Z"/><path class="cls-1" d="M28.55,129.52a4.21,4.21,0,0,1,.25-1.47,3.41,3.41,0,0,1,.79-1.23A3.71,3.71,0,0,1,31,126a6.66,6.66,0,0,1,4,0,3.71,3.71,0,0,1,1.38.85,3.36,3.36,0,0,1,.79,1.23,4.39,4.39,0,0,1,0,2.92,3.35,3.35,0,0,1-.79,1.23,3.71,3.71,0,0,1-1.39.85,5.88,5.88,0,0,1-2,.31,5.34,5.34,0,0,1-2.52-.53,3.39,3.39,0,0,1-1.46-1.4A4,4,0,0,1,28.55,129.52Zm1.95,0a2.83,2.83,0,0,0,.25,1.2,2,2,0,0,0,.81.88,3.2,3.2,0,0,0,2.84,0,2,2,0,0,0,.81-.88,3,3,0,0,0,0-2.41,2,2,0,0,0-.81-.89,3.2,3.2,0,0,0-2.84,0,2,2,0,0,0-.81.89A2.84,2.84,0,0,0,30.5,129.52Z"/><path class="cls-1" d="M51.69,128.45H49.75a1.43,1.43,0,0,0-.34-.68,1.86,1.86,0,0,0-.7-.49,2.43,2.43,0,0,0-.95-.18,2.67,2.67,0,0,0-1.39.33,2.09,2.09,0,0,0-.83.89,2.7,2.7,0,0,0-.27,1.2,2.61,2.61,0,0,0,.58,1.72,2.08,2.08,0,0,0,1.71.7,3,3,0,0,0,1.12-.18,1.51,1.51,0,0,0,.65-.5,4.15,4.15,0,0,0,.46-.9h1.95a3.08,3.08,0,0,1-1,2,3.71,3.71,0,0,1-1.6.84,6.84,6.84,0,0,1-1.39.17,5.34,5.34,0,0,1-2.52-.53,3.39,3.39,0,0,1-1.46-1.4,4.25,4.25,0,0,1-.16-3.49,3.35,3.35,0,0,1,.88-1.23,4,4,0,0,1,1.4-.79,5.84,5.84,0,0,1,1.85-.27,6,6,0,0,1,1.54.22,3.67,3.67,0,0,1,1.52.84A2.83,2.83,0,0,1,51.69,128.45Z"/><path class="cls-1" d="M57.59,129.52a4.21,4.21,0,0,1,.25-1.47,3.41,3.41,0,0,1,.79-1.23A3.71,3.71,0,0,1,60,126a6.66,6.66,0,0,1,4,0,3.71,3.71,0,0,1,1.38.85,3.38,3.38,0,0,1,.79,1.23,4.4,4.4,0,0,1,0,2.92,3.35,3.35,0,0,1-.79,1.23,3.72,3.72,0,0,1-1.39.85,5.87,5.87,0,0,1-2,.31,5.34,5.34,0,0,1-2.52-.53,3.38,3.38,0,0,1-1.46-1.4A4.06,4.06,0,0,1,57.59,129.52Zm1.95,0a2.83,2.83,0,0,0,.25,1.2,2,2,0,0,0,.81.88,3.2,3.2,0,0,0,2.84,0,2,2,0,0,0,.81-.88,3,3,0,0,0,0-2.41,2,2,0,0,0-.81-.89,3.2,3.2,0,0,0-2.84,0,2,2,0,0,0-.81.89A2.84,2.84,0,0,0,59.54,129.52Z"/><path class="cls-1" d="M82.08,130.86h2a1,1,0,0,0,.64,1,3.27,3.27,0,0,0,1.33.27,3.76,3.76,0,0,0,1.37-.23q.58-.23.58-.7a.63.63,0,0,0-.17-.46,1.5,1.5,0,0,0-.67-.29,14.18,14.18,0,0,0-1.5-.26q-1-.14-1.57-.26a3.78,3.78,0,0,1-1-.35,1.52,1.52,0,0,1-.63-.6,2,2,0,0,1-.21-1,1.81,1.81,0,0,1,1.12-1.83,6.13,6.13,0,0,1,2.47-.49,8.72,8.72,0,0,1,1.65.16,3.35,3.35,0,0,1,1.5.71,2.07,2.07,0,0,1,.72,1.59H87.85a1.11,1.11,0,0,0-.71-.95,3.52,3.52,0,0,0-1.32-.24,2.75,2.75,0,0,0-.87.12,1.42,1.42,0,0,0-.56.32.56.56,0,0,0-.19.39.7.7,0,0,0,.12.46,1,1,0,0,0,.5.24q.38.1,1.35.24,1.48.21,2.23.4a2.68,2.68,0,0,1,1.21.61,1.58,1.58,0,0,1,.46,1.22A2,2,0,0,1,89,132.8a6.13,6.13,0,0,1-2.89.58,9,9,0,0,1-1.35-.1,5,5,0,0,1-1.26-.36,2.48,2.48,0,0,1-1-.77A2.15,2.15,0,0,1,82.08,130.86Z"/><path class="cls-1" d="M95.91,129.52a4.21,4.21,0,0,1,.25-1.47,3.41,3.41,0,0,1,.79-1.23,3.71,3.71,0,0,1,1.38-.85,6.66,6.66,0,0,1,4,0,3.71,3.71,0,0,1,1.38.85,3.38,3.38,0,0,1,.79,1.23,4.4,4.4,0,0,1,0,2.92,3.35,3.35,0,0,1-.79,1.23,3.72,3.72,0,0,1-1.39.85,5.87,5.87,0,0,1-2,.31,5.34,5.34,0,0,1-2.52-.53,3.38,3.38,0,0,1-1.46-1.4A4.06,4.06,0,0,1,95.91,129.52Zm1.95,0a2.83,2.83,0,0,0,.25,1.2,2,2,0,0,0,.81.88,3.2,3.2,0,0,0,2.84,0,2,2,0,0,0,.81-.88,3,3,0,0,0,0-2.41,2,2,0,0,0-.81-.89,3.2,3.2,0,0,0-2.84,0,2,2,0,0,0-.81.89A2.84,2.84,0,0,0,97.86,129.52Z"/><path class="cls-1" d="M111.56,133.11v-5.82h-1.47v-1.35h1.47V125a2,2,0,0,1,.43-1.32,2.19,2.19,0,0,1,1.73-.52q.81,0,1.67.05v1.35a7.64,7.64,0,0,0-1-.05,2,2,0,0,0-.64.08.46.46,0,0,0-.29.25,1.37,1.37,0,0,0-.08.52v.55h2v1.35h-2v5.82Z"/><path class="cls-1" d="M121.59,131.1v-3.82H120.1v-1.35h1.49v-2.22h1.87v2.22h1.95v1.35h-1.95v3.27a5.07,5.07,0,0,0,0,.74.66.66,0,0,0,.18.39.63.63,0,0,0,.45.14l1.34,0v1.35a10.62,10.62,0,0,1-1.43.11,4,4,0,0,1-1.61-.25,1.2,1.2,0,0,1-.68-.69A4,4,0,0,1,121.59,131.1Z"/><path class="cls-1" d="M133.53,133.11l-2.72-7.17h2l1.84,5.25h0l1.72-5.25h1.94l1.72,5.25h0l1.84-5.25h2l-2.72,7.17h-2.11l-1.74-5h0l-1.74,5Z"/><path class="cls-1" d="M157.51,128.07v3.4a.36.36,0,0,0,.41.41,3.59,3.59,0,0,0,.61,0v1.31a7.75,7.75,0,0,1-1.32.17q-1.23,0-1.41-.92a4.75,4.75,0,0,1-3.37,1,4.2,4.2,0,0,1-1.58-.27,2.15,2.15,0,0,1-1-.77,2.1,2.1,0,0,1-.34-1.21,1.81,1.81,0,0,1,.51-1.38,2.54,2.54,0,0,1,1.16-.64,11.16,11.16,0,0,1,1.55-.24q1.44-.14,2-.23a1.94,1.94,0,0,0,.76-.24.51.51,0,0,0,.19-.43q0-1-2-1-1.86,0-2,1.19h-1.83a2.71,2.71,0,0,1,.62-1.46,2.66,2.66,0,0,1,1.27-.78,6.82,6.82,0,0,1,1.9-.23,6.66,6.66,0,0,1,2.57.38,1.93,1.93,0,0,1,1.07.88A2.9,2.9,0,0,1,157.51,128.07Zm-1.87,2.15v-.69a3.77,3.77,0,0,1-.83.24q-.44.07-1.62.21a3.37,3.37,0,0,0-1.38.36.81.81,0,0,0-.37.72.91.91,0,0,0,.45.88,2.17,2.17,0,0,0,1.06.24,4.4,4.4,0,0,0,1.21-.18,2.34,2.34,0,0,0,1.05-.62A1.6,1.6,0,0,0,155.64,130.23Z"/><path class="cls-1" d="M164.34,133.11v-7.17h1.87v1.39h0a3.73,3.73,0,0,1,1.08-1.15,2.84,2.84,0,0,1,1.62-.43,4.72,4.72,0,0,1,.74.07v1.84a3.94,3.94,0,0,0-1.19-.17,2.82,2.82,0,0,0-1.06.21,2,2,0,0,0-.88.7,2.1,2.1,0,0,0-.35,1.26v3.46h-1.87Z"/><path class="cls-1" d="M184.09,130h-6.77a2.26,2.26,0,0,0,.26.92,2,2,0,0,0,.78.78,2.71,2.71,0,0,0,1.4.32,2.85,2.85,0,0,0,1.34-.26,2.08,2.08,0,0,0,.79-.76h2a4.87,4.87,0,0,1-1.4,1.66,4.35,4.35,0,0,1-2.71.72,5.39,5.39,0,0,1-2.53-.53,3.35,3.35,0,0,1-1.45-1.39,3.94,3.94,0,0,1-.45-1.87,4.05,4.05,0,0,1,.31-1.61,3.49,3.49,0,0,1,.89-1.25,4,4,0,0,1,1.38-.79,5.32,5.32,0,0,1,1.74-.27,5.53,5.53,0,0,1,2,.33,3.65,3.65,0,0,1,1.38.89,3.54,3.54,0,0,1,.78,1.29,4.75,4.75,0,0,1,.25,1.55Zm-6.77-1.19h4.82a2.11,2.11,0,0,0-.33-.88,2,2,0,0,0-.6-.58,2.55,2.55,0,0,0-.73-.31,3.14,3.14,0,0,0-.76-.1,2.92,2.92,0,0,0-1,.17,2.2,2.2,0,0,0-1.42,1.7Z"/><path class="cls-1" d="M208.21,128.45h-1.95a1.42,1.42,0,0,0-.34-.68,1.86,1.86,0,0,0-.7-.49,2.43,2.43,0,0,0-.95-.18,2.67,2.67,0,0,0-1.39.33,2.09,2.09,0,0,0-.83.89,2.7,2.7,0,0,0-.27,1.2,2.62,2.62,0,0,0,.58,1.72,2.09,2.09,0,0,0,1.71.7,2.94,2.94,0,0,0,1.12-.18,1.51,1.51,0,0,0,.65-.5,4.14,4.14,0,0,0,.46-.9h1.95a3.08,3.08,0,0,1-1,2,3.7,3.7,0,0,1-1.6.84,6.82,6.82,0,0,1-1.39.17,5.34,5.34,0,0,1-2.52-.53,3.38,3.38,0,0,1-1.46-1.4,4.25,4.25,0,0,1-.16-3.49,3.35,3.35,0,0,1,.88-1.23,4,4,0,0,1,1.4-.79,5.85,5.85,0,0,1,1.85-.27,6,6,0,0,1,1.54.22,3.68,3.68,0,0,1,1.52.84A2.83,2.83,0,0,1,208.21,128.45Z"/><path class="cls-1" d="M214.11,129.52a4.21,4.21,0,0,1,.25-1.47,3.41,3.41,0,0,1,.79-1.23,3.71,3.71,0,0,1,1.38-.85,6.66,6.66,0,0,1,4,0,3.71,3.71,0,0,1,1.38.85,3.38,3.38,0,0,1,.79,1.23,4.4,4.4,0,0,1,0,2.92,3.35,3.35,0,0,1-.79,1.23,3.72,3.72,0,0,1-1.39.85,5.87,5.87,0,0,1-2,.31,5.34,5.34,0,0,1-2.52-.53,3.38,3.38,0,0,1-1.46-1.4A4.06,4.06,0,0,1,214.11,129.52Zm1.95,0a2.83,2.83,0,0,0,.25,1.2,2,2,0,0,0,.81.88,3.2,3.2,0,0,0,2.84,0,2,2,0,0,0,.81-.88,3,3,0,0,0,0-2.41,2,2,0,0,0-.81-.89,3.2,3.2,0,0,0-2.84,0,2,2,0,0,0-.81.89A2.84,2.84,0,0,0,216.06,129.52Z"/><path class="cls-1" d="M234.77,133.11v-4.27a2,2,0,0,0-.32-1.2q-.33-.45-1.44-.45a2.25,2.25,0,0,0-1.31.45,1.69,1.69,0,0,0-.64,1.49v4H229.2v-7.17h1.87V127h0a3.39,3.39,0,0,1,2.83-1.27,2.44,2.44,0,0,1,2.53,1.32,3.07,3.07,0,0,1,1.13-.95,3.82,3.82,0,0,1,1.78-.38,4.21,4.21,0,0,1,1.33.21,2.22,2.22,0,0,1,1.08.79,2.57,2.57,0,0,1,.44,1.59v4.76h-1.87v-4.27a2,2,0,0,0-.32-1.2q-.32-.45-1.43-.45a2.36,2.36,0,0,0-.85.17,1.75,1.75,0,0,0-.77.61,1.88,1.88,0,0,0-.33,1.15v4h-1.87Z"/><path class="cls-1" d="M248.74,135.84v-9.9h1.87v1h0a2.37,2.37,0,0,1,1.12-.92,4.23,4.23,0,0,1,1.63-.3,4.05,4.05,0,0,1,2.18.55,3.45,3.45,0,0,1,1.31,1.43,4.09,4.09,0,0,1,.43,1.83,4.16,4.16,0,0,1-.43,1.85,3.44,3.44,0,0,1-1.31,1.43,4.05,4.05,0,0,1-2.18.55,3.89,3.89,0,0,1-1.29-.21,3.51,3.51,0,0,1-1-.51,1.27,1.27,0,0,1-.46-.54h0v3.72h-1.87Zm4.19-8.66a2.6,2.6,0,0,0-1.37.33,2,2,0,0,0-.79.87,2.75,2.75,0,0,0-.25,1.17,2.82,2.82,0,0,0,.25,1.19,2,2,0,0,0,.79.87,3,3,0,0,0,2.75,0,2,2,0,0,0,.79-.87,2.81,2.81,0,0,0,.25-1.19,2.75,2.75,0,0,0-.25-1.17,2,2,0,0,0-.79-.87A2.62,2.62,0,0,0,252.93,127.18Z"/><path class="cls-1" d="M271.21,128.07v3.4a.36.36,0,0,0,.41.41,3.59,3.59,0,0,0,.61,0v1.31a7.75,7.75,0,0,1-1.32.17q-1.23,0-1.41-.92a4.75,4.75,0,0,1-3.37,1,4.2,4.2,0,0,1-1.58-.27,2.15,2.15,0,0,1-1-.77,2.1,2.1,0,0,1-.34-1.21,1.81,1.81,0,0,1,.51-1.38,2.54,2.54,0,0,1,1.16-.64,11.16,11.16,0,0,1,1.55-.24q1.44-.14,2-.23a1.94,1.94,0,0,0,.76-.24.51.51,0,0,0,.19-.43q0-1-2-1-1.86,0-2,1.19h-1.83a2.71,2.71,0,0,1,.62-1.46,2.66,2.66,0,0,1,1.27-.78,6.82,6.82,0,0,1,1.9-.23,6.66,6.66,0,0,1,2.57.38,1.93,1.93,0,0,1,1.07.88A2.9,2.9,0,0,1,271.21,128.07Zm-1.87,2.15v-.69a3.77,3.77,0,0,1-.83.24q-.44.07-1.62.21a3.37,3.37,0,0,0-1.38.36.81.81,0,0,0-.37.72.91.91,0,0,0,.45.88,2.17,2.17,0,0,0,1.06.24,4.4,4.4,0,0,0,1.21-.18,2.34,2.34,0,0,0,1.05-.62A1.6,1.6,0,0,0,269.34,130.23Z"/><path class="cls-1" d="M278,133.11v-7.17h1.87V127h0a3.39,3.39,0,0,1,2.83-1.27,3.85,3.85,0,0,1,2.18.58,2.13,2.13,0,0,1,.86,1.92v4.87h-1.87v-4.27q0-1.65-1.8-1.65a2.73,2.73,0,0,0-1,.21,1.9,1.9,0,0,0-1.19,1.86v3.86H278Z"/><path class="cls-1" d="M294.78,133l-3.34-7h2l2.3,5.13,2.25-5.13h2l-3.91,8.44a3.43,3.43,0,0,1-.58.93,1.52,1.52,0,0,1-.74.42,5.55,5.55,0,0,1-1.26.11l-1.17,0v-1.43q.3,0,.94,0a1.6,1.6,0,0,0,.67-.12.89.89,0,0,0,.41-.43Z"/><path class="cls-1" d="M280,100.36c.38-.34.76-.67,1.13-1,11.43-11.34,17-24.67,17-40.76s-5.58-29.47-17-40.91c-.37-.36-.74-.7-1.12-1l-.13-.12a59.85,59.85,0,0,1-25.54,12.67,32.16,32.16,0,0,1,9,6.45,31.5,31.5,0,0,1,9.49,22.94,31.12,31.12,0,0,1-9.49,22.73,32.33,32.33,0,0,1-8.93,6.39,59.75,59.75,0,0,1,25.53,12.76Z"/><path class="cls-1" d="M240.33,117.1l.1-.93h.27c1.74,0,3.48-.09,5.15-.24.44,0,.87-.1,1.29-.16l.71-.09c1.11-.13,2.2-.27,3.28-.46.72-.13,1.43-.29,2.14-.46l.4-.09c.9-.21,1.68-.38,2.45-.59,1-.27,2-.58,2.93-.91.6-.2,1.2-.41,1.78-.63,1.09-.41,2.17-.86,3.24-1.34l.82-.39.35-.17c1.41-.68,2.54-1.28,3.57-1.88l.38-.24a58.84,58.84,0,0,0,7.13-5,54.77,54.77,0,0,0-35.95-12.73l-2.46-.11c-.5,0-1-.07-1.47-.12s-1.09-.14-1.62-.23l-.2,0c-.42-.07-.85-.14-1.27-.22s-1-.24-1.52-.37l-.26-.07c-.4-.1-.79-.21-1.18-.33s-.85-.29-1.27-.45l-.63-.24c-.32-.12-.64-.24-1-.37s-.73-.34-1.09-.51l-.79-.38c-.28-.14-.57-.28-.85-.44-.45-.25-.9-.53-1.34-.81l-.5-.31c-.26-.16-.51-.31-.76-.49-.52-.36-1-.76-1.52-1.16l-.24-.18c-.24-.18-.49-.36-.72-.56-.62-.52-1.21-1.09-1.8-1.66l-.52-.49a31.27,31.27,0,0,1-9.06-18,34.11,34.11,0,0,1-.37-4.77,31.72,31.72,0,0,1,9.35-22.93c.75-.78,1.55-1.52,2.36-2.21l.39-.31c.69-.57,1.38-1.11,2.09-1.61l.44-.27.24-.15c.63-.42,1.28-.83,2-1.21l.53-.27.28-.14c.64-.33,1.28-.65,1.93-.93l.7-.27.27-.1c.63-.24,1.26-.48,1.91-.68l.76-.21.34-.09c.62-.17,1.24-.33,1.88-.46l1-.17.3,0c.6-.1,1.2-.19,1.81-.25s1-.08,1.45-.12l1-.11h1.42c13.77,0,25.54-4.16,36-12.62a58.73,58.73,0,0,0-7.23-5.08l.28-.91-.47.8c-1.13-.66-2.37-1.32-3.79-2l-.92-.44c-1.1-.51-2.23-1-3.47-1.46-.5-.19-1-.36-1.5-.53-1.06-.37-2.12-.71-3.19-1-.54-.15-1.1-.28-1.65-.41l-.8-.19c-.84-.2-1.67-.39-2.53-.54s-1.46-.22-2.2-.32l-1.32-.18C247,1,246.39,1,245.8.92c-1.41-.12-2.85-.17-4.21-.19l-.59,0-.62,0h-.23q-2.24,0-5.07.24h-.23c-.6,0-1.08.12-1.58.19l-2.09.28c-.63.08-1.25.16-1.87.27-.78.14-1.56.34-2.36.53l-1.36.32c-.45.11-.89.21-1.3.32-1.13.32-2.26.71-3.41,1.12l-.49.17c-.32.11-.62.21-.89.33-1.38.53-2.69,1.13-3.68,1.59l-.94.46c-1.31.65-2.59,1.36-3.82,2.12L210.5,9c-1.18.73-2.38,1.55-3.59,2.43l-.7.53q-1.6,1.22-3.17,2.54c-1.22,1.06-2.2,2-3.08,2.82l-.23.22-.16.14a61.71,61.71,0,0,0-6.3,7.45,55.08,55.08,0,0,0-10.65,33.46c0,16.09,5.56,29.42,16.94,40.76,1.19,1.19,2.45,2.28,3.54,3.21s2.07,1.7,3.13,2.48l.3.22c1.22.91,2.47,1.76,3.85,2.63l.71.42c1.25.75,2.52,1.45,3.79,2.09l1.06.5c1,.48,2.25,1,3.52,1.52l1.16.41.36.12c1.1.39,2.19.76,3.27,1.06.52.15,1.05.27,1.58.39l.6.14c1.1.27,2,.49,2.91.65s1.73.26,2.6.37l.95.13c.58.09,1.14.17,1.69.22,1.87.17,3.81.26,5.73.26l0,.92h0Z"/><path class="cls-1" d="M189.88,16.64l-.15-.13A59.88,59.88,0,0,1,164.2,29.18a32.05,32.05,0,0,1,8.94,6.45,32.91,32.91,0,0,1,6.34,8.9,59.53,59.53,0,0,1,12.66-25.61l-.09-.1c-.34-.39-.69-.78-1.07-1.15S190.25,17,189.88,16.64Z"/><path class="cls-1" d="M192.12,98.1a59.05,59.05,0,0,1-12.66-25.59,32.78,32.78,0,0,1-6.33,8.79,32.36,32.36,0,0,1-45.86,0A32.61,32.61,0,0,1,121,72.51a58.86,58.86,0,0,1-12.7,25.59l.09.11c.34.38.67.75,1,1.12,11.41,11.33,24.74,16.84,40.74,16.85s29.37-5.52,40.81-16.85c.37-.37.71-.75,1.06-1.14Z"/><path class="cls-1" d="M89.36,108.25l.56-.34c1.36-.84,2.65-1.72,3.93-2.67l.76.59L94,105.1c1.18-.88,2.26-1.74,3.26-2.6h0l.82-.72c1-.84,1.87-1.61,2.71-2.45,1.4-1.38,2.75-2.84,4-4.35.12-.14.22-.28.33-.43l.32-.42c.66-.81,1.3-1.63,1.9-2.47.36-.5.71-1,1.06-1.52.59-.87,1.17-1.76,1.7-2.66.28-.47.55-.95.81-1.42.55-1,1.08-2,1.56-3,.15-.32.29-.64.44-1l.1-.23c.57-1.27,1-2.41,1.42-3.47l.28-.83c.48-1.4.87-2.67,1.19-3.89l.13-.53c.38-1.51.68-2.94.92-4.37l.94,0-.91-.15a62.45,62.45,0,0,0,.8-10V56.09H118c0-.49.07-1,.12-1.45s.14-1.09.23-1.62.15-.92.24-1.38.26-1.13.41-1.68.23-.87.34-1.24c.18-.58.38-1.15.6-1.71l.1-.28c.1-.28.21-.56.32-.84.24-.58.52-1.15.8-1.72l.17-.35c.11-.22.22-.45.33-.67.31-.58.67-1.15,1-1.72l.21-.34c.11-.19.22-.38.35-.56.41-.61.85-1.19,1.31-1.78l.19-.26c.11-.16.23-.32.36-.47.67-.82,1.38-1.62,2.11-2.37s1.5-1.47,2.32-2.18c.19-.16.39-.32.59-.47l.48-.37c.46-.37.92-.73,1.4-1.07.23-.16.48-.32.73-.47l.5-.32c.45-.29.91-.58,1.37-.84.26-.14.53-.28.79-.41l.67-.33c.42-.21.85-.42,1.28-.61s.58-.23.88-.34l.35-.13c.56-.22,1.11-.42,1.66-.59.35-.11.72-.21,1.08-.3l.21-.05c.56-.15,1.13-.3,1.7-.42.41-.08.82-.15,1.24-.22.7-.11,1.28-.2,1.86-.27s1-.09,1.45-.12l1.06-.11h1.42A55,55,0,0,0,186.18,13.4,59.4,59.4,0,0,0,179,8.33l-.18-.11c-1.17-.69-2.42-1.35-3.84-2l-.88-.42c-1.1-.51-2.26-1-3.54-1.48l-1.35-.48c-1.26-.44-2.33-.77-3.37-1.06-.47-.13-.95-.24-1.42-.35L164,2.3c-1.06-.25-2.11-.5-3.19-.7-.55-.1-1.11-.17-1.67-.24l-1.37-.19c-.73-.1-1.45-.2-2.2-.27C154,.78,152.4.7,150.73.69l-.34,0h-.24c-1.67,0-3.41.08-5.32.25L144.49,0l.09.92c-.47,0-.94.11-1.44.18L141,1.4l-.76.1c-.36,0-.72.09-1.08.16-.73.14-1.49.32-2.25.51l-1,.25c-.48.11-1,.23-1.44.36l-.29.07c-1.08.3-2.15.67-3.42,1.13l-.42.15c-.35.12-.68.23-1,.36-1.06.41-2.19.91-3.59,1.56l-.58.28-.41.2c-1.26.63-2.51,1.32-3.86,2.14l-.52.32c-1.14.71-2.32,1.5-3.53,2.38l-.91.69q-1.51,1.15-3,2.39c-1.14,1-2.36,2.06-3.52,3.22-1.37,1.37-2.7,2.86-4.2,4.69q-.88,1.07-1.69,2.16c-.41.55-.81,1.1-1.2,1.66-.58.84-1.13,1.68-1.66,2.54l-.11.18c-.23.37-.45.73-.67,1.1-.59,1-1.14,2.05-1.66,3.1l-.19.36c-.1.2-.2.4-.3.6-.52,1.09-1,2.27-1.53,3.6l-.29.75c-.46,1.24-.87,2.54-1.28,4l-.15.54c-.37,1.38-.7,2.83-1,4.33l0,.18c-.3,1.66-.52,3.22-.68,4.82l-.07.62c-.16,1.85-.25,3.72-.26,5.56l-.1,2.45c0,.53-.07,1-.12,1.44S92.13,63.43,92,64l0,.2c-.07.4-.13.8-.21,1.2-.12.55-.25,1.07-.4,1.6l-.08.29c-.09.35-.19.7-.3,1.05-.16.52-.36,1-.55,1.53l-.12.32c-.12.33-.24.66-.38,1s-.41.88-.62,1.31l-.28.57c-.14.28-.27.56-.42.83-.26.47-.54.91-.83,1.36l-.35.57c-.14.23-.27.45-.43.67-.38.55-.8,1.08-1.21,1.61l-.29.38c-.12.17-.25.34-.38.5-.7.83-1.4,1.6-2.16,2.36s-1.5,1.45-2.36,2.16c-.14.12-.3.24-.45.35l-.24.18c-.58.46-1.17.93-1.78,1.35-.21.14-.43.28-.64.41l-.35.22c-.54.35-1.07.68-1.6,1-.28.16-.57.29-.85.43l-.6.29c-.42.21-.84.41-1.26.6s-.69.28-1,.41l-.6.22c-.4.15-.79.29-1.19.42s-1,.28-1.49.41-1,.25-1.45.36-1,.2-1.56.28-1,.16-1.51.22-1,.1-1.55.13h0v.11l-1,0L60,90.82a54.57,54.57,0,0,0-35.95,12.73,59.15,59.15,0,0,0,7.14,5l.18.11c1.22.71,2.39,1.33,3.81,2l.32.15.73.34c1.1.51,2.21,1,3.33,1.39.56.21,1.12.4,1.7.6,1,.34,2,.66,3,.93.8.22,1.62.41,2.45.59l.46.1c.68.16,1.36.31,2.05.44,1.16.21,2.35.36,3.54.5l.7.09c.33,0,.66.09,1,.12,1.88.16,3.76.25,5.6.25s3.92-.09,5.79-.26l1-.14c1.64-.18,3-.36,4.19-.59.67-.11,1.34-.28,2-.44l1.11-.26c.66-.15,1.32-.3,2-.48,1-.28,2-.63,3-1l.64-.22c.38-.13.76-.26,1.14-.41,1.1-.42,2.25-.92,3.62-1.58l.8-.38.58.75-.41-.83C86.75,109.76,88,109.07,89.36,108.25Z"/><path class="cls-1" d="M89.35,44.55A59.54,59.54,0,0,1,102,18.91l-.11-.12c-.34-.38-.68-.76-1-1.13C89.39,6.24,76,.68,60,.66s-29.32,5.58-40.73,17S2.36,42.49,2.35,58.57,7.9,88,19.28,99.32c.35.35.72.67,1.08,1l.15.13A59.54,59.54,0,0,1,46,87.69a32,32,0,0,1-8.88-6.4A31.2,31.2,0,0,1,27.7,58.57,31.79,31.79,0,0,1,37,35.64,30.87,30.87,0,0,1,60,26a31.24,31.24,0,0,1,23,9.59A32.89,32.89,0,0,1,89.35,44.55Z"/></g></g></svg>