<svg id="Capa_2" data-name="Capa 2" xmlns="http://www.w3.org/2000/svg" viewBox="0 0 900 417"><defs><style>.cls-1{fill:#fff;}</style></defs><title>logoOsoco15White</title><path class="cls-1" d="M330.79,86.91a4.5,4.5,0,0,0,2.51.84c1.22-.1,1.1-1.49,1.1-1.49s-.83-29.06-.83-16.35,1-16.52,1-16.52,7.88,37.44,11.77,40.09,7.15,2,7.15,2,2.33-3.51,3.17-3.93-3.63-10-5.46-15.27-8.39-29.52-8.39-29.52-9.44-4.28-10.17-2.48-1.81,20.24-2.11,25S330.79,86.91,330.79,86.91Z"/><path class="cls-1" d="M352.49,34.79c.56-.66,3.92-1.2,3.92-1.2s10.68-8.05,12-9.38-.2-2.43,2.72-3,4.94,2.74,5.93,4,3.42,5.48,2.47,6.61-10.63,4.55-12.19,4.68-7.44,3.07-7.44,3.07.2,10.81.78,11.46,6.73-5.27,15.4-6,10,9,10.38,13.47-1.22,23.16-10.94,24-7.67-8.27-6.72-9.4,1.74,2,1.74,2,1.2,3.92,3.45,3.73,4.76-10,3.4-17.93-5.63-9-8.58-8.72-5.2,15.28-4.16,15.2-2.24,2.46-4.32,2.63-6.14-.36-6.68-6.78S349.23,38.65,352.49,34.79Z"/><path class="cls-1" d="M435.91,33.31c-.36-6,1-14,.06-14.85s-3.89-5.17-6.87-4-4.55,10.64-4.55,10.64-4.8,18.48-9.42,18.33-.9-20.29,3.53-27.86S420,4.35,415.41,4.48c-5.45.16-5.87,1.84-7.1,3s-7.2,14.62-7.54,25.25.34,18,13.56,18c7,0,10.36-16.9,10.36-16.9l.78,13.95s-9.63,8.46-9.85,15.17,4.36,8,6,8.05S436,66.84,436,57.54C435.92,50.82,436.28,39.34,435.91,33.31Zm-15.08,33c-5.18-.17,1.66-12,5-14.22C425.8,52.08,426,66.46,420.83,66.3Z"/><path class="cls-1" d="M435,41.12s10.22-8.63,22.82-8.22,17.47-11.62,14.39-11.72-10.41,5-11.34,21.2c-1.29,22.51,17.6,1.5,17.6,1.5h0s-3.76,16.74-19.3,16.24c-15.51-1.07-15.64-45,12.38-45.17,10.74,0,5.16,12.89.41,17.07-4.41,3.9-22.43,5.79-28.54,8.53a47.76,47.76,0,0,0-11.31,7.62Z"/><path class="cls-1" d="M548.57,53.78c-5.8,1.77-22.21,15.38-22.21,15.38a90,90,0,0,1,8.95-12.45C541,50,553.86,37.84,552.36,36.53s-4.73-1.14-4.73-1.14-6.63,1.33-9.83.67a4.1,4.1,0,0,1-2.48-1.82C539,28.56,541,24,539.91,22.82c-3.51-4-10.75-1.05-11.35,4.67a17.51,17.51,0,0,0,1.81,8.77c-3.75,5.16-8.16,10.82-11.52,14-7.23,6.91-12.28,11.37-15.06,10.86s13.58-25.76,13.89-26.73,1.83-4.56-1.19-6.34-9.76,2.9-9.76,2.9a6.35,6.35,0,0,0-4.91-4.22c-5.79-1-18.3,2.77-24.59,15.45s2,18.33,5.44,18.44c5.12.17,12.3-11.46,15.81-17.79-3.09,6.68-6.88,18.19,1.7,21.39,7.71,2.88,22.69-12.47,32-25.36a5.48,5.48,0,0,0,4,1.92,48.71,48.71,0,0,0-12.65,12.43c-9.39,12.87-9.7,22.52.37,22.85,3.08.1,1.46-1.64,16.28-13.62,0,0,9.74-6.55,12.68-6.59a9.3,9.3,0,0,0,5.4-2.35S554.38,52,548.57,53.78Zm-63.76-2.22c-6.08,0,2.45-20.37,19.51-19.24C505.17,32.37,490.07,51.56,484.81,51.56ZM535.08,25c2.26-5,3.1-.46,3.09-.18,0,.1-1.62,2.6-4,6.06A11,11,0,0,1,535.08,25Z"/><path class="cls-1" d="M564.15,57.31c.66,0,4.37,4.95,6.49,1.54s1.65-5.55-1.19-4.57-10.8,7.66-10.6,9.93,8.61,6,9.1,11.51S561.14,95,546.28,95c-8.31,0-11.66-5.67-9.35-10.8,1.6-3.58,7.55-8.42,7.55-6.79,0,.31-10.94,9.5-3.45,13.35s13.12-1.2,16.65-6.62c3.65-5.62-2-10.66-3.92-12.46S546.69,62,551.6,57c7-7,19.68-9.77,23.2-3s-3,11.12-5.28,10.51-9-7-9.35-8.18S564.15,57.31,564.15,57.31Z"/><path class="cls-1" d="M88,406.14a9.34,9.34,0,0,1-3.69-.69,7.76,7.76,0,0,1-2.74-1.89,8,8,0,0,1-1.71-2.87,11.84,11.84,0,0,1,0-7.32,8,8,0,0,1,1.71-2.87,7.9,7.9,0,0,1,2.74-1.89,10.35,10.35,0,0,1,7.38,0,7.9,7.9,0,0,1,2.74,1.89,8,8,0,0,1,1.71,2.87,11.84,11.84,0,0,1,0,7.32,8,8,0,0,1-1.71,2.87,7.76,7.76,0,0,1-2.74,1.89,9.34,9.34,0,0,1-3.69.69m0-3a4.36,4.36,0,0,0,2.21-.54,4.57,4.57,0,0,0,1.53-1.4,6.19,6.19,0,0,0,.89-1.95,8.9,8.9,0,0,0,0-4.43,6,6,0,0,0-.89-2,4.72,4.72,0,0,0-1.53-1.38,4.79,4.79,0,0,0-4.42,0,4.72,4.72,0,0,0-1.53,1.38,6,6,0,0,0-.89,2,8.9,8.9,0,0,0,0,4.43,6.19,6.19,0,0,0,.89,1.95,4.57,4.57,0,0,0,1.53,1.4,4.36,4.36,0,0,0,2.21.54"/><path class="cls-1" d="M119.53,400.12a2.89,2.89,0,0,0,1.27,2.34,5,5,0,0,0,2.64.67,11.29,11.29,0,0,0,1.22-.08,5.8,5.8,0,0,0,1.29-.32,2.42,2.42,0,0,0,1-.69,1.62,1.62,0,0,0,.36-1.18,1.77,1.77,0,0,0-.54-1.21,3.7,3.7,0,0,0-1.28-.75,12.49,12.49,0,0,0-1.79-.48c-.67-.14-1.35-.28-2-.44a18.08,18.08,0,0,1-2-.56,7,7,0,0,1-1.78-.91,4.09,4.09,0,0,1-1.25-1.45,4.67,4.67,0,0,1-.47-2.19,3.94,3.94,0,0,1,.69-2.36,5.15,5.15,0,0,1,1.74-1.53,7.67,7.67,0,0,1,2.33-.82,14.35,14.35,0,0,1,2.46-.23,11.29,11.29,0,0,1,2.56.28,7.07,7.07,0,0,1,2.2.92,5.38,5.38,0,0,1,1.64,1.65,5.78,5.78,0,0,1,.82,2.46h-4a2.4,2.4,0,0,0-1.25-1.84,5.25,5.25,0,0,0-2.26-.47,9.24,9.24,0,0,0-1,.07,4.7,4.7,0,0,0-1,.25,2,2,0,0,0-.82.54,1.25,1.25,0,0,0-.34.92,1.43,1.43,0,0,0,.49,1.13,3.75,3.75,0,0,0,1.27.72,11.67,11.67,0,0,0,1.78.48l2.07.44a17.58,17.58,0,0,1,2,.57,6.4,6.4,0,0,1,1.79.9,4.41,4.41,0,0,1,1.27,1.44,4.33,4.33,0,0,1,.48,2.13,4.62,4.62,0,0,1-.7,2.61,5.48,5.48,0,0,1-1.82,1.73,8.15,8.15,0,0,1-2.49,1,12.55,12.55,0,0,1-2.7.3,12.09,12.09,0,0,1-3-.37,7.18,7.18,0,0,1-2.4-1.12,5.37,5.37,0,0,1-1.61-1.87,6.07,6.07,0,0,1-.62-2.66Z"/><path class="cls-1" d="M158.73,406.14a9.3,9.3,0,0,1-3.69-.69,7.67,7.67,0,0,1-2.74-1.89,8,8,0,0,1-1.71-2.87,11.84,11.84,0,0,1,0-7.32,8,8,0,0,1,1.71-2.87,7.8,7.8,0,0,1,2.74-1.89,10.35,10.35,0,0,1,7.38,0,7.77,7.77,0,0,1,4.44,4.76,11.65,11.65,0,0,1,0,7.32,7.77,7.77,0,0,1-4.44,4.76,9.34,9.34,0,0,1-3.69.69m0-3a4.32,4.32,0,0,0,2.2-.54,4.5,4.5,0,0,0,1.54-1.4,6.17,6.17,0,0,0,.88-1.95,8.6,8.6,0,0,0,0-4.43,6,6,0,0,0-.88-2,4.66,4.66,0,0,0-1.54-1.38,4.77,4.77,0,0,0-4.41,0,4.86,4.86,0,0,0-1.54,1.38,6,6,0,0,0-.88,2,8.9,8.9,0,0,0,0,4.43,6.17,6.17,0,0,0,.88,1.95,4.69,4.69,0,0,0,1.54,1.4,4.36,4.36,0,0,0,2.21.54"/><path class="cls-1" d="M199.09,394.17a3.6,3.6,0,0,0-1.29-2.42,4.21,4.21,0,0,0-2.65-.82,5.63,5.63,0,0,0-1.57.25,3.74,3.74,0,0,0-1.54.94,5.22,5.22,0,0,0-1.17,1.9,9.16,9.16,0,0,0-.47,3.2,9.68,9.68,0,0,0,.25,2.13,6.07,6.07,0,0,0,.8,1.91,4.37,4.37,0,0,0,1.42,1.35,4,4,0,0,0,2.11.52,3.86,3.86,0,0,0,2.76-1,4.82,4.82,0,0,0,1.35-2.9h3.81a8.37,8.37,0,0,1-2.56,5.16,7.82,7.82,0,0,1-5.36,1.79,8.74,8.74,0,0,1-3.59-.69,7.59,7.59,0,0,1-2.63-1.87,8,8,0,0,1-1.62-2.82,11.27,11.27,0,0,1-.55-3.54,12,12,0,0,1,.54-3.65,8.25,8.25,0,0,1,1.6-2.95,7.32,7.32,0,0,1,2.66-2,8.91,8.91,0,0,1,3.72-.72,10.68,10.68,0,0,1,2.86.38,7.79,7.79,0,0,1,2.41,1.15,6.14,6.14,0,0,1,1.71,1.94,6.57,6.57,0,0,1,.81,2.77Z"/><path class="cls-1" d="M230.73,406.14a9.34,9.34,0,0,1-3.69-.69,7.76,7.76,0,0,1-2.74-1.89,8,8,0,0,1-1.71-2.87,11.84,11.84,0,0,1,0-7.32,8,8,0,0,1,1.71-2.87,7.9,7.9,0,0,1,2.74-1.89,10.35,10.35,0,0,1,7.38,0,7.9,7.9,0,0,1,2.74,1.89,8,8,0,0,1,1.71,2.87,11.84,11.84,0,0,1,0,7.32,8,8,0,0,1-1.71,2.87,7.76,7.76,0,0,1-2.74,1.89,9.34,9.34,0,0,1-3.69.69m0-3a4.36,4.36,0,0,0,2.21-.54,4.57,4.57,0,0,0,1.53-1.4,6.19,6.19,0,0,0,.89-1.95,8.9,8.9,0,0,0,0-4.43,6,6,0,0,0-.89-2,4.72,4.72,0,0,0-1.53-1.38,4.36,4.36,0,0,0-2.21-.54,4.3,4.3,0,0,0-2.2.54,4.66,4.66,0,0,0-1.54,1.38,6,6,0,0,0-.89,2,8.9,8.9,0,0,0,0,4.43,6.19,6.19,0,0,0,.89,1.95,4.5,4.5,0,0,0,1.54,1.4,4.3,4.3,0,0,0,2.2.54"/><path class="cls-1" d="M288.4,400.12a2.86,2.86,0,0,0,1.27,2.34,4.93,4.93,0,0,0,2.64.67,11.62,11.62,0,0,0,1.22-.08,5.71,5.71,0,0,0,1.28-.32,2.39,2.39,0,0,0,1-.69,1.62,1.62,0,0,0,.35-1.18,1.72,1.72,0,0,0-.53-1.21,3.75,3.75,0,0,0-1.29-.75,11.81,11.81,0,0,0-1.79-.48c-.67-.14-1.34-.28-2-.44a18.25,18.25,0,0,1-2.06-.56,6.72,6.72,0,0,1-1.77-.91,4,4,0,0,1-1.25-1.45,4.55,4.55,0,0,1-.47-2.19,4,4,0,0,1,.68-2.36,5.35,5.35,0,0,1,1.74-1.53,7.64,7.64,0,0,1,2.34-.82,14.35,14.35,0,0,1,2.46-.23,11.14,11.14,0,0,1,2.55.28,7,7,0,0,1,2.21.92,5.49,5.49,0,0,1,1.64,1.65,5.77,5.77,0,0,1,.81,2.46h-4a2.38,2.38,0,0,0-1.26-1.84,5.17,5.17,0,0,0-2.25-.47,9,9,0,0,0-1,.07,4.79,4.79,0,0,0-1,.25,2.1,2.1,0,0,0-.82.54,1.28,1.28,0,0,0-.33.92,1.46,1.46,0,0,0,.48,1.13,4,4,0,0,0,1.27.72,12.14,12.14,0,0,0,1.79.48l2.07.44a18.16,18.16,0,0,1,2,.57,6.54,6.54,0,0,1,1.79.9,4.52,4.52,0,0,1,1.27,1.44,4.33,4.33,0,0,1,.48,2.13,4.62,4.62,0,0,1-.7,2.61,5.58,5.58,0,0,1-1.82,1.73,8.25,8.25,0,0,1-2.49,1,12.64,12.64,0,0,1-2.71.3,12,12,0,0,1-3-.37,7.14,7.14,0,0,1-2.41-1.12,5.34,5.34,0,0,1-1.6-1.87,5.93,5.93,0,0,1-.62-2.66Z"/><path class="cls-1" d="M327.59,406.14a9.34,9.34,0,0,1-3.69-.69,7.77,7.77,0,0,1-4.44-4.76,11.65,11.65,0,0,1,0-7.32,7.77,7.77,0,0,1,4.44-4.76,10.38,10.38,0,0,1,7.39,0A7.85,7.85,0,0,1,334,390.5a8,8,0,0,1,1.71,2.87,11.84,11.84,0,0,1,0,7.32,8,8,0,0,1-1.71,2.87,7.72,7.72,0,0,1-2.73,1.89,9.42,9.42,0,0,1-3.7.69m0-3a4.36,4.36,0,0,0,2.21-.54,4.57,4.57,0,0,0,1.53-1.4,6,6,0,0,0,.89-1.95,8.9,8.9,0,0,0,0-4.43,5.84,5.84,0,0,0-.89-2,4.72,4.72,0,0,0-1.53-1.38,4.77,4.77,0,0,0-4.41,0,4.66,4.66,0,0,0-1.54,1.38,6,6,0,0,0-.89,2,8.9,8.9,0,0,0,0,4.43,6.19,6.19,0,0,0,.89,1.95,4.5,4.5,0,0,0,1.54,1.4,4.32,4.32,0,0,0,2.2.54"/><path class="cls-1" d="M354.59,388.4h2.84V387a7.34,7.34,0,0,1,.4-2.66,3.77,3.77,0,0,1,1.07-1.57,3.42,3.42,0,0,1,1.52-.73,8,8,0,0,1,1.79-.19,11.28,11.28,0,0,1,2.67.23v3a4.81,4.81,0,0,0-.79-.15,9,9,0,0,0-1-.05,2.3,2.3,0,0,0-1.32.37,1.59,1.59,0,0,0-.55,1.43v1.78h3.24v2.83h-3.24v14.44h-3.81V391.23h-2.84Z"/><path class="cls-1" d="M381.89,388.4h2.87v-5.19h3.81v5.19H392v2.83h-3.44v9.23a10,10,0,0,0,.05,1,2,2,0,0,0,.23.74,1.15,1.15,0,0,0,.56.45,2.66,2.66,0,0,0,1,.15c.27,0,.53,0,.8,0a4.28,4.28,0,0,0,.8-.11v2.93l-1.24.14a9.92,9.92,0,0,1-1.23.07,8.36,8.36,0,0,1-2.42-.29,3.15,3.15,0,0,1-1.44-.83,2.83,2.83,0,0,1-.7-1.39,10.45,10.45,0,0,1-.22-1.9v-10.2h-2.87Z"/><polygon class="cls-1" points="409.95 388.4 414 388.4 417.37 401.29 417.44 401.29 420.68 388.4 424.52 388.4 427.63 401.29 427.69 401.29 431.21 388.4 435.08 388.4 429.67 405.67 425.76 405.67 422.55 392.84 422.48 392.84 419.31 405.67 415.3 405.67 409.95 388.4"/><path class="cls-1" d="M468.79,401.83a2,2,0,0,0,.19,1,.77.77,0,0,0,.72.3h.39a2.22,2.22,0,0,0,.54-.07v2.64a4.36,4.36,0,0,1-.52.15,6.19,6.19,0,0,1-.65.15,4.92,4.92,0,0,1-.67.1,4.18,4.18,0,0,1-.56,0,3.67,3.67,0,0,1-1.94-.47,2.36,2.36,0,0,1-1-1.64,6.69,6.69,0,0,1-2.78,1.61,11.2,11.2,0,0,1-3.2.5,7.81,7.81,0,0,1-2.23-.32,5.59,5.59,0,0,1-1.89-.94,4.34,4.34,0,0,1-1.3-1.57,4.72,4.72,0,0,1-.49-2.22,5.25,5.25,0,0,1,.58-2.61,4.46,4.46,0,0,1,1.54-1.57,7,7,0,0,1,2.14-.81c.79-.17,1.59-.3,2.39-.39a19,19,0,0,1,2-.28,9.35,9.35,0,0,0,1.66-.29,2.61,2.61,0,0,0,1.13-.61,1.71,1.71,0,0,0,.42-1.26,2,2,0,0,0-.35-1.2,2.51,2.51,0,0,0-.87-.72,3.84,3.84,0,0,0-1.15-.33,8.74,8.74,0,0,0-1.21-.09,4.79,4.79,0,0,0-2.63.67,2.6,2.6,0,0,0-1.17,2.07H454a5.76,5.76,0,0,1,.81-2.77,5.38,5.38,0,0,1,1.78-1.77,7.58,7.58,0,0,1,2.46-.94,15.27,15.27,0,0,1,2.8-.26,12.36,12.36,0,0,1,2.51.26,7.15,7.15,0,0,1,2.22.87,4.75,4.75,0,0,1,1.59,1.56,4.26,4.26,0,0,1,.6,2.32ZM465,397a4.67,4.67,0,0,1-2.14.68c-.85.08-1.69.2-2.54.35a7.41,7.41,0,0,0-1.17.29,3.67,3.67,0,0,0-1,.5,2.22,2.22,0,0,0-.68.83,2.82,2.82,0,0,0-.25,1.25,1.57,1.57,0,0,0,.37,1.07,2.74,2.74,0,0,0,.89.69,4.27,4.27,0,0,0,1.13.35,6.63,6.63,0,0,0,1.12.1,6.32,6.32,0,0,0,1.37-.17,4.48,4.48,0,0,0,1.38-.57,3.51,3.51,0,0,0,1.09-1,2.61,2.61,0,0,0,.44-1.53Z"/><path class="cls-1" d="M489.68,388.4h3.57v3.34h.07a3.82,3.82,0,0,1,.65-1.37,5.86,5.86,0,0,1,1.17-1.22,5.78,5.78,0,0,1,1.52-.89,4.59,4.59,0,0,1,1.7-.33,9.07,9.07,0,0,1,.92,0l.52.07v3.67l-.82-.12a7.63,7.63,0,0,0-.82,0,4.34,4.34,0,0,0-1.82.38,4,4,0,0,0-1.48,1.14,5.47,5.47,0,0,0-1,1.85,8.15,8.15,0,0,0-.36,2.54v8.22h-3.81Z"/><path class="cls-1" d="M520.61,398a6.7,6.7,0,0,0,.29,1.94,4.69,4.69,0,0,0,.85,1.63,4.12,4.12,0,0,0,1.44,1.12,4.72,4.72,0,0,0,2.07.42,4.58,4.58,0,0,0,2.69-.72,4.23,4.23,0,0,0,1.52-2.16h3.61a7.13,7.13,0,0,1-1,2.51,7.3,7.3,0,0,1-1.77,1.86,7.47,7.47,0,0,1-2.32,1.13,9.8,9.8,0,0,1-6.3-.28A7.45,7.45,0,0,1,519,403.6a7.72,7.72,0,0,1-1.64-2.88,11.54,11.54,0,0,1-.55-3.67,10.35,10.35,0,0,1,.58-3.49,9,9,0,0,1,1.67-2.91,7.79,7.79,0,0,1,6.1-2.72,7.72,7.72,0,0,1,3.66.85,8.18,8.18,0,0,1,2.69,2.25,9.22,9.22,0,0,1,1.55,3.23,9.67,9.67,0,0,1,.25,3.76Zm8.89-2.51a6.09,6.09,0,0,0-.38-1.74,4.59,4.59,0,0,0-.87-1.45,4.2,4.2,0,0,0-1.34-1,3.85,3.85,0,0,0-1.75-.39,4.61,4.61,0,0,0-1.82.35,4.27,4.27,0,0,0-1.41,1,4.79,4.79,0,0,0-.93,1.46,5.26,5.26,0,0,0-.39,1.8Z"/><path class="cls-1" d="M590.75,394.17a3.6,3.6,0,0,0-1.29-2.42,4.21,4.21,0,0,0-2.65-.82,5.63,5.63,0,0,0-1.57.25,3.74,3.74,0,0,0-1.54.94,5.22,5.22,0,0,0-1.17,1.9,9.16,9.16,0,0,0-.47,3.2,9.68,9.68,0,0,0,.25,2.13,6.07,6.07,0,0,0,.8,1.91,4.3,4.3,0,0,0,1.43,1.35,3.94,3.94,0,0,0,2.1.52,3.82,3.82,0,0,0,2.75-1,4.77,4.77,0,0,0,1.36-2.9h3.81a8.37,8.37,0,0,1-2.56,5.16,7.8,7.8,0,0,1-5.36,1.79,8.74,8.74,0,0,1-3.59-.69,7.59,7.59,0,0,1-2.63-1.87,7.85,7.85,0,0,1-1.61-2.82,11,11,0,0,1-.56-3.54,12,12,0,0,1,.54-3.65,8.25,8.25,0,0,1,1.6-2.95,7.4,7.4,0,0,1,2.66-2,8.91,8.91,0,0,1,3.72-.72,10.62,10.62,0,0,1,2.86.38,7.63,7.63,0,0,1,2.4,1.15,6.33,6.33,0,0,1,1.73,1.94,6.71,6.71,0,0,1,.8,2.77Z"/><path class="cls-1" d="M622.39,406.14a9.34,9.34,0,0,1-3.69-.69,7.76,7.76,0,0,1-2.74-1.89,8,8,0,0,1-1.71-2.87,11.84,11.84,0,0,1,0-7.32A8,8,0,0,1,616,390.5a7.9,7.9,0,0,1,2.74-1.89,10.35,10.35,0,0,1,7.38,0,7.9,7.9,0,0,1,2.74,1.89,8,8,0,0,1,1.7,2.87,11.65,11.65,0,0,1,0,7.32,7.93,7.93,0,0,1-1.7,2.87,7.76,7.76,0,0,1-2.74,1.89,9.34,9.34,0,0,1-3.69.69m0-3a4.36,4.36,0,0,0,2.21-.54,4.57,4.57,0,0,0,1.53-1.4,6.19,6.19,0,0,0,.89-1.95,8.9,8.9,0,0,0,0-4.43,6,6,0,0,0-.89-2,4.72,4.72,0,0,0-1.53-1.38,4.79,4.79,0,0,0-4.42,0,4.72,4.72,0,0,0-1.53,1.38,6,6,0,0,0-.89,2,8.9,8.9,0,0,0,0,4.43,6.19,6.19,0,0,0,.89,1.95,4.57,4.57,0,0,0,1.53,1.4,4.36,4.36,0,0,0,2.21.54"/><path class="cls-1" d="M651.09,388.4h3.61v2.4h.1a10.86,10.86,0,0,1,.93-1.17,5.14,5.14,0,0,1,1.13-.9,5.56,5.56,0,0,1,1.42-.59,7.19,7.19,0,0,1,1.83-.21,6.2,6.2,0,0,1,2.92.7A3.93,3.93,0,0,1,665,390.8a7.71,7.71,0,0,1,2.24-2.11,6,6,0,0,1,3.17-.76,6.23,6.23,0,0,1,4.26,1.33c1,.89,1.52,2.39,1.52,4.48v11.93h-3.81V395.58q0-1-.06-1.89a4,4,0,0,0-.39-1.47,2.18,2.18,0,0,0-.95-1,3.78,3.78,0,0,0-1.74-.34,3.22,3.22,0,0,0-2.81,1.21,5.74,5.74,0,0,0-.86,3.4v10.13h-3.82v-11.1a4.75,4.75,0,0,0-.64-2.72,2.77,2.77,0,0,0-2.39-.92,3.65,3.65,0,0,0-1.42.3,3.7,3.7,0,0,0-1.21.87,4.48,4.48,0,0,0-.83,1.4,5.24,5.24,0,0,0-.32,1.91v10.26h-3.81Z"/><path class="cls-1" d="M697.07,388.4h3.61v2.34h.06a4.68,4.68,0,0,1,2.24-2.16,7.35,7.35,0,0,1,3.11-.65,8.26,8.26,0,0,1,3.56.72,6.9,6.9,0,0,1,2.52,2,8.42,8.42,0,0,1,1.5,2.92,12.15,12.15,0,0,1,.5,3.58,12.68,12.68,0,0,1-.45,3.37,8.87,8.87,0,0,1-1.37,2.89,6.81,6.81,0,0,1-2.32,2,6.91,6.91,0,0,1-3.31.76,8.66,8.66,0,0,1-1.67-.16,6.72,6.72,0,0,1-1.6-.48,6,6,0,0,1-1.42-.85,4.69,4.69,0,0,1-1.09-1.22h-.07v8.62h-3.8Zm13.29,8.65a9.13,9.13,0,0,0-.29-2.28,6.48,6.48,0,0,0-.91-1.95,4.68,4.68,0,0,0-1.5-1.37,4.13,4.13,0,0,0-2.07-.52A4.21,4.21,0,0,0,702,392.6a7.42,7.42,0,0,0-1.22,4.45,8.85,8.85,0,0,0,.32,2.42,5.4,5.4,0,0,0,1,1.92,4.74,4.74,0,0,0,1.52,1.27,4.38,4.38,0,0,0,2.06.47,4.29,4.29,0,0,0,2.2-.53,4.72,4.72,0,0,0,1.49-1.39,5.54,5.54,0,0,0,.83-1.94,9.63,9.63,0,0,0,.25-2.22"/><path class="cls-1" d="M748.66,401.83a2.07,2.07,0,0,0,.18,1,.77.77,0,0,0,.72.3h.4a2.21,2.21,0,0,0,.53-.07v2.64a4.13,4.13,0,0,1-.51.15c-.22.06-.43.11-.65.15a5.43,5.43,0,0,1-.67.1,4.43,4.43,0,0,1-.57,0,3.69,3.69,0,0,1-1.94-.47,2.32,2.32,0,0,1-1-1.64,6.79,6.79,0,0,1-2.79,1.61,11.14,11.14,0,0,1-3.2.5,7.86,7.86,0,0,1-2.23-.32,5.78,5.78,0,0,1-1.89-.94,4.34,4.34,0,0,1-1.3-1.57,4.72,4.72,0,0,1-.49-2.22,5.15,5.15,0,0,1,.59-2.61,4.35,4.35,0,0,1,1.53-1.57,7,7,0,0,1,2.14-.81c.8-.17,1.59-.3,2.39-.39a19,19,0,0,1,2-.28,9,9,0,0,0,1.66-.29,2.65,2.65,0,0,0,1.14-.61,1.75,1.75,0,0,0,.41-1.26,2,2,0,0,0-.35-1.2,2.34,2.34,0,0,0-.87-.72,3.84,3.84,0,0,0-1.15-.33,8.72,8.72,0,0,0-1.2-.09,4.83,4.83,0,0,0-2.64.67,2.6,2.6,0,0,0-1.17,2.07h-3.81a5.76,5.76,0,0,1,.8-2.77,5.41,5.41,0,0,1,1.79-1.77,7.44,7.44,0,0,1,2.45-.94,15.38,15.38,0,0,1,2.81-.26,12.43,12.43,0,0,1,2.51.26,7.09,7.09,0,0,1,2.21.87,4.66,4.66,0,0,1,1.59,1.56,4.26,4.26,0,0,1,.61,2.32ZM744.85,397a4.63,4.63,0,0,1-2.14.68c-.85.08-1.69.2-2.54.35a7.69,7.69,0,0,0-1.17.29,3.47,3.47,0,0,0-1,.5,2.25,2.25,0,0,0-.69.83,2.82,2.82,0,0,0-.25,1.25,1.57,1.57,0,0,0,.37,1.07,2.74,2.74,0,0,0,.89.69,4.39,4.39,0,0,0,1.13.35,6.63,6.63,0,0,0,1.12.1,6.32,6.32,0,0,0,1.37-.17,4.54,4.54,0,0,0,1.39-.57,3.59,3.59,0,0,0,1.08-1,2.61,2.61,0,0,0,.44-1.53Z"/><path class="cls-1" d="M769.57,388.4h3.61v2.53l.07.07a6.3,6.3,0,0,1,2.27-2.26,6.08,6.08,0,0,1,3.1-.81,6.45,6.45,0,0,1,4.48,1.47,5.63,5.63,0,0,1,1.64,4.41v11.86h-3.81V394.81a4.65,4.65,0,0,0-.87-3,3.16,3.16,0,0,0-2.51-.92,4,4,0,0,0-1.73.36,3.67,3.67,0,0,0-1.3,1,4.57,4.57,0,0,0-.84,1.46,5.14,5.14,0,0,0-.3,1.77v10.19h-3.81Z"/><path class="cls-1" d="M803.65,388.4h4.18l4.51,12.89h.07l4.37-12.89h4L814,406.6c-.31.78-.61,1.53-.92,2.24a8,8,0,0,1-1.1,1.89,4.59,4.59,0,0,1-1.62,1.3,5.43,5.43,0,0,1-2.47.49,17.84,17.84,0,0,1-2.64-.2v-3.21c.31.05.61.09.9.15a5.29,5.29,0,0,0,.9.08,3.18,3.18,0,0,0,1.11-.16,1.84,1.84,0,0,0,.71-.49,2.86,2.86,0,0,0,.49-.75,7.57,7.57,0,0,0,.37-1l.43-1.34Z"/><path class="cls-1" d="M770.6,324.81c.95-.83,1.89-1.66,2.8-2.56,28.24-28,42-60.92,42-100.66s-13.77-72.78-42-101c-.91-.9-1.84-1.72-2.77-2.55l-.32-.28A147.8,147.8,0,0,1,707.24,149,79.68,79.68,0,0,1,729.36,165c15.59,15.75,23.47,34.81,23.43,56.65,0,21.59-7.84,40.48-23.44,56.14a80.09,80.09,0,0,1-22.06,15.78,147.51,147.51,0,0,1,63,31.53c.09-.09.19-.16.27-.24"/><path class="cls-1" d="M672.9,363.85l.67,0c4.3,0,8.59-.22,12.72-.58,1.08-.09,2.14-.24,3.2-.39l1.74-.22c2.73-.33,5.44-.66,8.09-1.13,1.78-.32,3.55-.73,5.3-1.13l1-.23c2.23-.51,4.16-.94,6-1.46,2.43-.67,4.84-1.44,7.22-2.25q2.24-.74,4.41-1.56c2.7-1,5.37-2.12,8-3.32.7-.31,1.36-.63,2-.95l.87-.43c3.47-1.69,6.28-3.16,8.82-4.64l1-.58a146.53,146.53,0,0,0,17.61-12.27c-25.74-21.08-54.81-31.37-88.79-31.43L666.7,301c-1.22-.09-2.43-.17-3.62-.3-1.34-.15-2.7-.35-4-.57l-.49-.07c-1-.17-2.09-.34-3.12-.56-1.29-.27-2.53-.59-3.77-.92l-.64-.17c-1-.25-1.95-.51-2.92-.81s-2.1-.72-3.14-1.11l-1.55-.58c-.79-.28-1.58-.58-2.35-.91-.92-.39-1.8-.83-2.69-1.27l-1.95-1c-.7-.35-1.4-.69-2.1-1.08-1.12-.62-2.22-1.32-3.31-2l-1.24-.77c-.64-.39-1.27-.77-1.88-1.19-1.3-.91-2.53-1.89-3.75-2.86l-.6-.45c-.61-.45-1.2-.89-1.78-1.38-1.53-1.28-3-2.68-4.44-4.09l-1.3-1.2c-12.47-12.57-20-27.48-22.37-44.36a83.65,83.65,0,0,1-.9-11.78c0-21.89,7.73-40.94,23.08-56.63,1.86-1.92,3.82-3.75,5.82-5.45l1-.76c1.71-1.41,3.41-2.74,5.16-4,.38-.25.73-.46,1.07-.67l.59-.36c1.55-1,3.17-2.06,4.83-3,.44-.24.88-.46,1.31-.68l.71-.35c1.57-.81,3.15-1.59,4.77-2.28.57-.25,1.14-.46,1.72-.68l.65-.25c1.55-.6,3.11-1.18,4.72-1.68.62-.19,1.25-.36,1.88-.52l.84-.23c1.52-.41,3.06-.81,4.63-1.13.78-.16,1.58-.3,2.38-.43l.74-.12c1.47-.24,3-.47,4.47-.62,1.18-.13,2.38-.21,3.58-.29l2.57-.27h3.5c34-.07,63.08-10.28,88.79-31.17A144.94,144.94,0,0,0,743.7,97.52l-.48-.29c-2.79-1.63-5.86-3.26-9.36-5l-2.27-1.08c-2.71-1.25-5.52-2.43-8.56-3.6-1.23-.46-2.46-.89-3.71-1.31-2.61-.91-5.23-1.75-7.88-2.49-1.35-.37-2.72-.69-4.09-1l-2-.46c-2.07-.49-4.14-1-6.25-1.35-1.78-.31-3.6-.54-5.42-.78l-3.27-.43c-1.42-.2-2.84-.4-4.29-.52-3.48-.31-7-.41-10.4-.48-.48,0-1,0-1.45-.07s-1-.06-1.52-.06l-.57,0c-3.69,0-7.86.21-12.52.6l-.57,0c-1.49.13-2.68.3-3.91.47l-5.15.7c-1.56.2-3.11.39-4.62.67-1.92.36-3.86.83-5.82,1.31l-3.36.81c-1.12.26-2.19.51-3.2.79-2.8.79-5.58,1.76-8.43,2.78l-1.19.41c-.79.28-1.53.53-2.22.82-3.41,1.31-6.63,2.79-9.07,3.94l-2.33,1.14c-3.23,1.61-6.39,3.37-9.44,5.24l-1.4.85c-2.91,1.82-5.89,3.83-8.87,6l-1.73,1.3q-4,3-7.82,6.28c-3,2.61-5.45,4.83-7.61,7-.18.18-.38.36-.58.54l-.38.34A152.78,152.78,0,0,0,556.44,139c-17.65,24.28-26.25,51.31-26.29,82.63,0,39.73,13.73,72.65,41.83,100.65,2.95,2.92,6.06,5.62,8.74,7.93,2.54,2.13,5.12,4.19,7.73,6.14l.73.53c3,2.24,6.1,4.35,9.51,6.5l1.75,1c3.08,1.85,6.23,3.58,9.36,5.16l2.62,1.24c2.53,1.19,5.56,2.57,8.69,3.77.94.36,1.91.69,2.87,1l.9.31c2.72,1,5.41,1.88,8.07,2.62,1.3.37,2.6.67,3.9,1l1.48.34c2.71.67,4.91,1.21,7.18,1.61s4.27.65,6.43.92l2.33.31c1.45.21,2.83.41,4.18.55,4.62.42,9.39.64,14.16.64Z"/><path class="cls-1" d="M548.05,118.06l-.37-.33a147.81,147.81,0,0,1-63,31.28A79,79,0,0,1,506.71,165a81,81,0,0,1,15.64,22,147.14,147.14,0,0,1,31.28-63.24l-.22-.24c-.84-1-1.7-1.93-2.63-2.86s-1.81-1.7-2.73-2.51"/><path class="cls-1" d="M553.59,319.22A145.9,145.9,0,0,1,522.32,256a81.13,81.13,0,0,1-15.62,21.7c-15.49,15.61-34.53,23.52-56.59,23.52-22.23,0-41.23-7.92-56.68-23.54A80.55,80.55,0,0,1,378,256a145.22,145.22,0,0,1-31.37,63.19l.23.27c.83.93,1.66,1.86,2.57,2.76,28.17,28,61.08,41.58,100.6,41.61s72.53-13.64,100.78-41.62c.93-.91,1.77-1.86,2.62-2.81l.19-.21"/><path class="cls-1" d="M299.81,344.29l1.39-.84c3.35-2.08,6.55-4.25,9.71-6.58l.49-.36c2.92-2.18,5.57-4.29,8.05-6.42h0l2-1.78c2.41-2.07,4.63-4,6.69-6.05,3.45-3.42,6.78-7,9.9-10.74.29-.35.55-.71.81-1.06s.53-.71.81-1c1.62-2,3.2-4,4.69-6.09.9-1.24,1.76-2.49,2.61-3.74,1.46-2.17,2.88-4.35,4.21-6.57.69-1.15,1.34-2.33,2-3.51,1.36-2.44,2.67-4.91,3.87-7.42.37-.77.72-1.57,1.07-2.36l.25-.56c1.4-3.14,2.55-6,3.51-8.57l.7-2.06c1.19-3.45,2.15-6.6,3-9.61l.31-1.32c.94-3.73,1.68-7.27,2.28-10.8l.07-.47a154.09,154.09,0,0,0,2-24.73v-6.11h.3c.08-1.21.18-2.41.3-3.59.16-1.36.35-2.68.56-4,.19-1.14.38-2.28.61-3.41.29-1.4.64-2.78,1-4.15.31-1.2.56-2.15.85-3.08.44-1.43.94-2.83,1.47-4.23l.26-.7c.25-.69.51-1.38.8-2.07.6-1.43,1.28-2.84,2-4.25l.43-.86c.26-.55.52-1.11.82-1.65.77-1.44,1.65-2.85,2.52-4.24l.51-.84c.28-.47.56-.93.86-1.39,1-1.49,2.11-2.94,3.23-4.39l.48-.65c.28-.39.57-.78.88-1.16,1.64-2,3.4-4,5.21-5.85s3.7-3.63,5.73-5.37c.48-.41,1-.78,1.46-1.16l1.2-.92c1.13-.91,2.28-1.81,3.47-2.63.57-.41,1.19-.79,1.8-1.17l1.24-.78c1.12-.72,2.24-1.43,3.4-2.07.64-.36,1.3-.69,2-1l1.66-.82c1.05-.53,2.09-1,3.17-1.51.72-.3,1.44-.58,2.17-.84l.85-.32c1.4-.53,2.73-1,4.09-1.46.87-.27,1.77-.51,2.66-.74l.52-.14c1.38-.37,2.78-.73,4.19-1,1-.21,2-.37,3.06-.54,1.73-.27,3.16-.5,4.6-.65,1.17-.13,2.38-.21,3.58-.29l2.63-.27h3.49c34-.08,63-10.28,88.75-31.18a104.9,104.9,0,0,0-17.84-12.52l-.44-.27c-2.88-1.69-6-3.33-9.47-5l-2.17-1c-2.72-1.25-5.59-2.45-8.75-3.66-1.09-.41-2.21-.8-3.34-1.19-3.11-1.08-5.75-1.91-8.32-2.61-1.16-.32-2.34-.6-3.52-.87l-.9-.21c-2.6-.63-5.22-1.25-7.87-1.73-1.35-.23-2.74-.41-4.12-.59l-3.38-.46c-1.79-.25-3.58-.5-5.42-.66-3.85-.33-7.9-.52-12-.55-.28,0-.56,0-.83,0l-.61,0c-4.11,0-8.41.2-13.14.6l-.61,0c-1.15.1-2.32.27-3.55.45l-5.22.73c-.58.09-1.23.17-1.88.25-.89.11-1.78.23-2.65.38-1.81.35-3.67.8-5.57,1.25l-2.58.62c-1.19.28-2.38.56-3.56.88l-.7.17c-2.66.76-5.3,1.66-8.44,2.78l-1,.36c-.86.3-1.68.58-2.44.88-2.61,1-5.42,2.24-8.85,3.86l-1.44.69c-.35.17-.7.33-1,.5-3.12,1.54-6.21,3.26-9.54,5.29-.57.33-1,.56-1.29.79-2.82,1.75-5.73,3.72-8.72,5.88l-2.24,1.69q-3.74,2.85-7.37,5.92c-2.82,2.43-5.83,5.09-8.69,8C346,124,342.74,127.64,339,132.16c-1.44,1.76-2.82,3.53-4.16,5.33-1,1.35-2,2.71-3,4.09q-2.15,3.09-4.09,6.26l-.29.45c-.56.91-1.12,1.82-1.65,2.73-1.46,2.52-2.81,5.07-4.1,7.66l-.45.9c-.25.49-.5,1-.74,1.49-1.27,2.7-2.51,5.61-3.78,8.89l-.72,1.87c-1.13,3.06-2.16,6.27-3.16,9.81l-.38,1.33c-.92,3.4-1.74,7-2.43,10.7l-.09.46c-.74,4.09-1.28,8-1.67,11.89l-.16,1.54c-.41,4.57-.62,9.18-.64,13.72l-.25,6.05c-.1,1.32-.18,2.45-.3,3.57-.15,1.36-.36,2.7-.58,4l-.08.49c-.16,1-.33,2-.53,2.95-.28,1.35-.63,2.65-1,4l-.19.71c-.23.87-.46,1.74-.73,2.6-.4,1.28-.88,2.52-1.35,3.77l-.3.79c-.3.82-.6,1.63-.95,2.44-.47,1.09-1,2.16-1.53,3.23l-.7,1.41c-.34.69-.67,1.38-1.05,2.06-.64,1.15-1.34,2.26-2,3.36l-.88,1.4c-.34.56-.68,1.11-1.05,1.66-.94,1.36-2,2.67-3,4l-.71.92c-.31.42-.61.84-.95,1.23-1.72,2.06-3.46,4-5.32,5.83s-3.72,3.57-5.82,5.33c-.35.31-.73.58-1.12.87l-.59.45c-1.44,1.14-2.89,2.29-4.4,3.32-.52.36-1.06.69-1.59,1l-.86.53c-1.34.86-2.63,1.68-4,2.41-.7.39-1.4.73-2.1,1.07l-1.48.73c-1,.51-2.07,1-3.11,1.47-.85.37-1.71.69-2.58,1l-1.48.55c-1,.36-2,.72-2.94,1-1.21.38-2.45.71-3.69,1s-2.37.62-3.58.87-2.56.49-3.86.69-2.46.4-3.73.54-2.55.24-3.84.33h0v.27l-2.36.12-3.65-.13c-34,0-63.08,10.32-88.78,31.44A146,146,0,0,0,156.19,345l.44.28c3,1.76,5.9,3.28,9.42,5l.78.38,1.8.85c2.71,1.24,5.46,2.36,8.23,3.42,1.38.52,2.78,1,4.19,1.48,2.43.83,4.86,1.62,7.34,2.3,2,.54,4,1,6,1.46l1.13.25c1.67.39,3.35.78,5.06,1.08,2.87.52,5.81.88,8.76,1.23l1.73.22c.81.11,1.62.23,2.44.3,4.63.41,9.29.62,13.82.63,4.88,0,9.7-.23,14.3-.65.78-.08,1.71-.22,2.58-.34,4.05-.44,7.31-.9,10.35-1.45,1.65-.29,3.31-.68,5-1.1l2.73-.64c1.63-.37,3.26-.74,4.86-1.18,2.46-.69,4.94-1.55,7.44-2.43l1.59-.54c.94-.33,1.89-.65,2.82-1,2.71-1,5.55-2.28,8.94-3.9.71-.32,1.34-.62,2-.92l.42-.2c3-1.47,6.08-3.18,9.43-5.21"/><path class="cls-1" d="M299.8,187A147.09,147.09,0,0,1,331,123.67c-.09-.1-.19-.2-.28-.31-.83-.94-1.66-1.88-2.58-2.8-28.26-28.19-61.23-41.91-100.78-42s-72.4,13.77-100.59,42S85,181.89,84.93,221.61s13.71,72.63,41.83,100.64c.86.85,1.77,1.65,2.67,2.45l.38.33a146.91,146.91,0,0,1,62.94-31.52,79.26,79.26,0,0,1-21.94-15.8c-15.45-15.58-23.28-34.46-23.25-56.11,0-21.85,7.72-40.91,23-56.63s34.35-23.7,56.62-23.7,41.38,8,56.91,23.67A81,81,0,0,1,299.8,187"/></svg>